<svg xmlns="http://www.w3.org/2000/svg" width="1100" height="955" version="1.1"><path fill="#FFE600" d="m257 703c-0.761-1.16-0.75-1.53 0.122-4.12 0.586-1.74 1.3-2.89 1.83-2.96 0.701-0.0957 0.8 0.166 0.494 1.3-0.211 0.781-0.199 2.25 0.027 3.26 0.412 1.85-0.171 3.79-1.14 3.79-0.278 0-0.881-0.574-1.34-1.27zm-33.6-3.78c-0.157-0.157-0.854-0.373-1.55-0.479-0.785-0.12-1.33-0.616-1.43-1.31-0.202-1.32 1.47-5.53 1.81-4.56 0.164 0.466 0.524 0.512 1.19 0.153 1.31-0.7 1.64-0.219 1.64 2.39 0 2.09-1.02 4.45-1.66 3.81zm24.2-1.59c0.046-1.3 2.01-5.79 2.07-4.73 0.022 0.386 0.254 0.57 0.516 0.408 0.777-0.481 0.994 2.74 0.275 4.09-0.874 1.63-2.91 1.8-2.86 0.228zm26.8-7.09c-0.856-1.03-0.188-3.26 1.08-3.59 1.38-0.36 1.65-0.0225 1.65 2.05 0 1.93-1.63 2.85-2.72 1.54zm-1.42-14.2c-0.655-0.263-1.34-1.07-1.52-1.8s-1.13-2.05-2.11-2.94c-1.75-1.59-1.78-1.6-2.09-0.446-0.173 0.645-0.318 1.82-0.322 2.62-0.01 1.54-0.786 2.42-1.34 1.52-0.185-0.3-0.625-0.542-0.976-0.537-0.384 5e-3 -0.318 0.216 0.166 0.529 0.716 0.462 0.716 0.519 0 0.506-1.26-0.0225-3.02-3.28-3.42-6.31-0.377-2.84 0.01-3.64 2.5-5.2 0.472-0.295 0.934-1.14 1.03-1.88 0.211-1.68-1.43-1.9-3.11-0.421-0.913 0.804-1.4 0.888-2.58 0.44-1.09-0.413-1.36-0.394-1.07 0.0738 0.272 0.44 0.082 0.502-0.64 0.207-2.04-0.831-2.63-0.61-2.81 1.04-0.097 0.886-0.385 1.83-0.641 2.09-0.265 0.273-0.343 0.0107-0.18-0.61 0.157-0.6-0.019-1.28-0.39-1.51-0.475-0.294-0.573-0.153-0.332 0.476 0.189 0.491 0.109 0.893-0.177 0.893-0.286 0-0.52-0.611-0.52-1.36 0-1.5-1.11-2.19-2.55-1.58-0.517 0.217-1.49 0.432-2.16 0.478-1.05 0.0718-1.18-0.113-0.92-1.31 0.168-0.764 0.895-2.55 1.62-3.98 0.721-1.42 1.2-2.77 1.06-3s-0.398-1.34-0.579-2.48-0.44-2.26-0.576-2.48c-0.364-0.593-3.29-0.49-3.67 0.129-0.322 0.521-3.92-0.66-4.55-1.49-1.15-1.53-2.11-1.78-3.71-0.952-2.2 1.14-2.5 1.08-4.44-0.771-0.927-0.886-2.19-1.61-2.81-1.62-1.9-0.0137-5.76-1.36-5.31-1.85 0.232-0.254 0.01-0.314-0.503-0.131-1.14 0.409-1.95-0.872-1.62-2.58 0.285-1.49 2.66-3.84 4.16-4.11 0.82-0.147 1.1-0.664 1.18-2.18 0.061-1.09 0.51-2.6 0.998-3.34 1.1-1.67 0.657-3.84-0.878-4.33-1.28-0.405-5.33 2-5.33 3.16 0 0.857-1.89 2.66-2.96 2.82-1.37 0.2-1.53-1.93-0.257-3.28 1.22-1.3 1.07-2.58-0.249-2.08-0.41 0.157-1.2 0.0435-1.75-0.253-0.818-0.438-1.39-0.18-3.03 1.37l-2.02 1.9 1.2 1.28c1.37 1.46 1.28 1.49-2.01 0.668-3.28-0.825-4.14 0-2.04 1.95 1.26 1.17 1.39 1.5 0.74 1.91-1.32 0.835-5.73 0.623-6.08-0.293-0.176-0.459-0.977-0.805-1.86-0.805-0.855 0-2.13-0.442-2.83-0.982-1.89-1.45-3.2-1.8-4.05-1.09-1.22 1.01-1.79-0.116-1.81-3.59-0.034-5.97 0.261-7.4 2.05-10 0.956-1.39 1.98-2.67 2.27-2.85 0.935-0.578 0.367-3.53-0.801-4.16-1.66-0.901-5.61-1.59-8.68-1.52-2.01 0.0472-2.84-0.156-3.07-0.747-0.427-1.11-1.42-1.02-1.43 0.128-0.013 1.5-0.8 2.35-2.35 2.52-1.69 0.186-3.55-1.8-3.55-3.8 0-0.698-0.242-1.27-0.537-1.27-0.295 0-0.537 0.362-0.537 0.805 0 0.443-0.333 0.805-0.739 0.805-0.407 0-1.05 0.378-1.44 0.839-0.632 0.761-0.74 0.761-1.17 0-0.258-0.462-1.02-0.839-1.7-0.839-0.678 0-1.65-0.464-2.16-1.03-0.889-0.983-0.882-1.06 0.165-1.62 1.55-0.831 0.866-2.08-1.47-2.66-6.15-1.54-11-1.09-12.9 1.2-0.628 0.758-2.75 1.29-2.75 0.687 0-0.11 0.353-1.2 0.785-2.42 0.873-2.47 0.623-3.82-0.708-3.81-1.19 9e-3 -5.59 5.12-7.73 8.97-2.19 3.95-5.82 8.67-6.7 8.71-0.92 0.042-0.847-0.462 0.407-2.8 0.593-1.11 1.19-2.88 1.33-3.95 0.267-2.08 1.5-3.38 3.25-3.4 0.656-0.0102 1.5-0.714 2.1-1.76 0.556-0.959 1.57-2.42 2.25-3.25 0.682-0.826 1.63-2.34 2.12-3.35 0.484-1.02 1.05-1.85 1.27-1.85 0.49 0 0.614-0.924 0.794-5.9 0.08-2.21 0.434-5.21 0.786-6.66 0.395-1.63 0.446-2.76 0.132-2.95-0.982-0.607-0.864-1.06 0.693-2.69 0.864-0.902 1.44-1.77 1.29-1.93-0.157-0.157 0.111-2.03 0.595-4.16 0.674-2.97 1.12-3.92 1.9-4.07 1.44-0.277 2.93-2.25 2.95-3.9 0.01-0.771 0.742-2.31 1.63-3.43 1.43-1.8 1.85-2.66 1.5-3.09-0.06-0.0738 0.273-0.859 0.741-1.74s1.42-2.92 2.12-4.53 1.94-3.84 2.75-4.96c0.812-1.12 1.48-2.37 1.48-2.77 0-0.4 0.483-1.16 1.07-1.7 0.59-0.534 1.07-1.21 1.07-1.5s0.845-1.56 1.88-2.83 1.88-2.41 1.88-2.56c0-0.148 1.22-2.04 2.71-4.2 2.77-4.02 3.07-5.58 1.41-7.27-0.868-0.89-7.17 0.57-8.71 2.02-0.615 0.578-1.54 1.05-2.05 1.05-0.97 0-4.1 2.08-4.1 2.72 0 0.205-1.97 2.44-4.39 4.96-4.13 4.33-6.95 8.41-8.79 12.7-0.441 1.03-1.03 2.24-1.32 2.68-0.652 1.02-2.3 4.45-2.36 4.92-0.12 0.884-0.956 1.15-1.39 0.444-1.22-1.98 1.4-9.09 6.37-17.3 0.677-1.11 0.974-2.1 0.685-2.28-0.856-0.529-0.048-2.35 1.18-2.67 0.636-0.165 1.76-1.21 2.49-2.33 0.735-1.11 1.48-2.15 1.66-2.29 0.178-0.148 1.63-1.97 3.23-4.04s3.21-4.13 3.58-4.56c2-2.33 2.81-3.41 2.81-3.79 0-0.232 0.725-1.21 1.61-2.18 0.886-0.97 1.61-1.97 1.61-2.22 0-0.668 1.14-1.65 2.76-2.36 0.924-0.409 1.66-1.35 2.09-2.68 0.367-1.13 0.994-2.53 1.4-3.11 0.942-1.37 0.921-1.89-0.076-1.89-0.443 0-0.805-0.138-0.805-0.307s0.362-0.669 0.805-1.11c0.495-0.495 0.805-1.81 0.805-3.42 0-1.44 0.261-2.78 0.58-2.97 0.319-0.197 0.438-0.926 0.264-1.62-0.348-1.39 1.14-2.61 2.52-2.08 0.936 0.359 2.23-1.1 1.72-1.93-0.448-0.724-4.09-0.175-4.63 0.698-0.238 0.385-1.25 0.191-3.05-0.586-1.48-0.638-3.17-1.16-3.75-1.16-1.38 0-3.84 2.11-2.91 2.5 0.942 0.391 0.28 1.26-0.958 1.26-0.75 0-0.932 0.252-0.678 0.939 0.191 0.517 0.533 1.07 0.76 1.22 0.227 0.155 0.199 0.63-0.063 1.05-0.367 0.594-0.824 0.65-1.98 0.243-1.79-0.627-2.37-2.69-0.868-3.08 0.75-0.194 0.776-0.266 0.118-0.314-1.55-0.113-2.59-4.36-1.06-4.36 0.21 0 1.67-0.958 3.23-2.13 2.24-1.67 3.06-2.02 3.82-1.61 0.651 0.348 1.42 0.314 2.34-0.105 1.95-0.888 1.89-3.23-0.104-4.23-0.812-0.406-1.89-1.08-2.4-1.5-0.507-0.419-1.41-0.633-2.01-0.476-0.982 0.257-1.06 0.0908-0.808-1.68 0.155-1.08 0.342-2.45 0.416-3.04 0.074-0.59 0.33-1.39 0.568-1.77 0.244-0.391 0.158-1.03-0.197-1.45-0.511-0.615-0.361-0.827 0.786-1.11 2.13-0.535 1.49-1.98-1.27-2.85-2.33-0.738-2.34-0.753-1.07-1.46 0.706-0.391 1.71-0.72 2.22-0.73 0.968-0.0196 1.36-1.09 0.403-1.09-0.295 0-0.537-0.242-0.537-0.537 0-0.295 0.966-0.537 2.15-0.537 1.57 0 2.15-0.221 2.15-0.822 0-1.06-1-1.42-4.16-1.52-3.44-0.103-3.37-1.3 0.135-2.45 4.59-1.51 6.98-2.9 6.98-4.06 0-1.48-5.02-2.31-6.01-0.993-0.355 0.471-1.02 0.713-1.48 0.538-1.22-0.467-1.01 0.585 0.243 1.26 1.13 0.602 1.49 2.15 0.502 2.15-1.24 0-2.72-1.18-2.43-1.95 0.194-0.507 0.081-0.654-0.315-0.409-0.987 0.61-7.42 0.689-7.42 0.0914 0-0.293-0.362-0.386-0.805-0.207-0.443 0.179-1.14 0.46-1.54 0.625-0.405 0.165-1.15-0.119-1.67-0.631-0.752-0.752-1.12-0.809-1.94-0.299-0.556 0.347-1.8 0.616-2.76 0.597-1.7-0.033-1.71-0.0495-0.423-0.564 0.868-0.346 1.11-0.665 0.699-0.919-0.414-0.256-0.458-0.661-0.13-1.18 0.863-1.37 0.575-1.98-1.35-2.9-2.02-0.959-3.57-2.99-2.28-2.99 0.397 0 1.19-0.34 1.76-0.757 1.01-0.74 1.01-0.781 0.028-1.87-0.825-0.912-0.884-1.26-0.33-1.93 0.528-0.636 0.531-0.815 0.017-0.815-0.372 0-0.522-0.359-0.345-0.821 0.227-0.592-0.137-0.911-1.3-1.14-1.98-0.396-2.98-1.93-1.86-2.86 0.943-0.782 4.31 0.157 5 1.4 0.261 0.467 0.807 0.646 1.34 0.44 0.497-0.191 0.769-0.562 0.606-0.826s0.586-1 1.66-1.64c1.75-1.03 1.93-1.34 1.65-2.82l-0.309-1.66 1.06 1.27c1.25 1.49 2.47 1.22 3.2-0.705 0.341-0.896 0.786-1.24 1.33-1.03 0.592 0.227 0.83-0.0394 0.85-0.95l0.028-1.27 0.842 1.21c0.463 0.664 1.16 1.21 1.55 1.21 0.967 0 3.62-2.51 3.04-2.88-0.257-0.159-3.35-0.455-6.87-0.659-4.59-0.265-6.97-0.653-8.39-1.37-1.1-0.55-2.3-1.01-2.68-1.02-0.381-9e-3 -1.9-0.611-3.38-1.34-2.92-1.43-6.25-1.71-8.69-0.712-1.05 0.429-9.39 0.665-27.3 0.772-24.3 0.145-31.7 0.539-34.1 1.83-0.501 0.268-2.05 0.642-3.45 0.832-3.25 0.44-4.75-0.663-4.31-3.16 0.702-3.99 2.85-4.5 16.1-3.85 3.84 0.188 7.73 0.578 8.64 0.866 2.27 0.712 34 0.683 38.1-0.0351 1.77-0.313 5.64-0.704 8.59-0.868 4.64-0.258 5.81-0.14 8.59 0.865 7.57 2.73 12.4 3.23 17.7 1.84 1.76-0.46 3.93-0.7 4.83-0.533 1.77 0.33 6.73-0.922 8.74-2.21 0.688-0.44 1.53-0.693 1.88-0.562s1.2 0.0271 1.89-0.231c1.01-0.376 1.2-0.734 0.933-1.79-0.26-1.04-0.157-1.26 0.48-1.01 0.446 0.171 0.812 0.527 0.812 0.791 0 0.732 1.48 0.571 2.24-0.245 0.717-0.768 2.59-0.568 2.59 0.276 0 0.275 1.16 0.448 2.59 0.383 1.42-0.0649 2.82 0.0241 3.1 0.198 0.281 0.174 2.08 0.13 3.99-0.0974 1.91-0.227 4.2-0.199 5.09 0.0636 8.53 2.53 18.5 3.3 20.7 1.6 2.2-1.69 3.04-1.76 4.16-0.335 0.783 0.996 1.54 1.32 3.11 1.31 3.02-0.012 3.58-0.548 3.23-3.07-0.165-1.18-0.724-3.03-1.24-4.12-1.26-2.64-0.56-3.8 2.29-3.8h2.09l-0.194 4.97c-0.169 4.33-0.08 4.97 0.688 4.97 0.485 0 1.02-0.348 1.18-0.772s1.02-0.931 1.9-1.12c1.44-0.315 1.59-0.539 1.45-2.16-0.203-2.36 2.02-6.11 3.64-6.13 1.65-0.0208 2.13 0.954 2.04 4.15-0.08 3.04 0.499 3.62 1.48 1.48 0.336-0.738 0.929-1.34 1.32-1.34s1.13-0.664 1.64-1.48c1.55-2.45 3.06-3.87 4.12-3.88 0.792-7e-3 0.924 0.243 0.631 1.2-0.204 0.664-0.508 2.39-0.675 3.83l-0.304 2.63 1.55-0.375c0.854-0.206 1.85-0.767 2.22-1.25 1.2-1.57 1.36-0.244 0.201 1.64-1.52 2.46-1.45 2.69 0.744 2.28 1.57-0.295 2.11-0.125 3.26 1.03 0.761 0.761 2.39 1.73 3.62 2.16 2.04 0.709 2.3 0.697 2.93-0.139 0.377-0.505 0.634-1.79 0.571-2.86-0.128-2.18 2.11-6.55 3.82-7.47 1.47-0.786 3.24-0.673 3.24 0.208 0 0.491 0.376 0.657 1.07 0.474 0.617-0.161 1.07-0.0165 1.07 0.34 0 0.919-2.25 3.8-2.97 3.8-0.962 0-3.31 2.28-3.71 3.6-0.197 0.653-0.081 1.71 0.258 2.34 0.51 0.953 0.908 1.09 2.31 0.773 0.932-0.208 2.01-0.395 2.41-0.415 0.433-0.0228 0.604-0.444 0.437-1.08-0.301-1.15 1.73-3.55 3.12-3.69 0.456-0.0443 1.12-0.105 1.47-0.134 0.444-0.0372 0.597 0.897 0.498 3.03-0.089 1.93 0.073 3.09 0.433 3.09 0.317 0 0.576 0.33 0.576 0.733 0 0.576 0.807 0.676 3.76 0.465 3.73-0.267 3.76-0.259 3.76 1.08 0 0.864-0.504 1.68-1.39 2.27l-1.39 0.914 1.2 0.838c1.07 0.749 1.46 0.754 3.68 0.044 1.37-0.437 2.78-0.694 3.15-0.572 0.809 0.27 0.891 3.15 0.104 3.64-0.605 0.374-0.157 5.02 0.559 5.8 0.589 0.641 4.83-0.75 4.83-1.58 0-1.08 1.98-1.89 4.18-1.71 1.68 0.139 1.97 0.348 1.87 1.33-0.109 1.06 0.109 1.16 2.46 1.07 2.07-0.0749 2.98-0.438 4.57-1.83 1.09-0.958 2.4-1.73 2.9-1.72 1.46 0.0282 3.17 1.77 3.58 3.64 0.367 1.67 0.448 1.71 3.31 1.71 1.61 0 3.59-0.328 4.39-0.73s2.54-0.872 3.86-1.04c4.39-0.573 6.33-1.71 6.97-4.11 0.807-3 3.35-4.85 6.67-4.85 2.82 0 3.96 0.468 5.92 2.43 1.54 1.54 3.08 1.71 4.13 0.441 0.405-0.489 1.57-1.24 2.6-1.67 1.82-0.76 1.89-0.739 3.35 0.897 1.01 1.13 1.5 2.26 1.5 3.48 0 1.55 0.212 1.85 1.53 2.11 0.842 0.168 2.05 0.171 2.68 7e-3 1.76-0.459 3.86 0.23 3.51 1.15-0.364 0.949 1.62 3.86 2.91 4.27 0.512 0.162 1.17 0.821 1.46 1.46 0.293 0.643 0.894 1.33 1.34 1.53 2.86 1.28 2.95 1.42 2.95 4.08 0 3.19 1.67 5.86 4 6.37 2.59 0.568 3.09 1.65 1.66 3.58l-1.22 1.65 1.09 1.09c0.952 0.952 2.17 1.16 9.48 1.61 7.16 0.44 8.52 0.398 9.3-0.281 3.28-2.87 8.87-3.91 15.1-2.81 3.76 0.66 4.74 1.04 5.56 2.16 0.549 0.75 1.88 1.85 2.95 2.43 1.07 0.588 2.68 1.49 3.56 2 4 2.31 10.1 3.62 20.7 4.44 10.4 0.812 15.9 1.49 19.6 2.43 1.77 0.451 4.2 1 5.39 1.23 1.19 0.224 2.49 0.608 2.89 0.853 0.398 0.246 3.29 0.623 6.42 0.839 7.21 0.496 9.72 1.54 9.72 4.06 0 1.62 0.134 1.74 2.38 2.08 1.31 0.196 11.6 0.0618 22.9-0.299 11.3-0.361 24.3-0.675 28.9-0.699 9.87-0.0506 33.4 0.349 33.9 0.576 0.18 0.0871 6.58 0.297 14.2 0.466s15.2 0.394 16.8 0.5c1.62 0.106 7.74 0.344 13.6 0.528 9.86 0.312 10.6 0.269 10.5-0.586-0.226-1.29 2.28-1.72 6.86-1.19 2.04 0.238 9.39 0.702 16.3 1.03 17 0.807 19.4 1.03 20.3 1.91 0.414 0.414 1.52 0.764 2.46 0.778 0.938 0.0139 6.54 0.266 12.4 0.56 5.9 0.294 11.5 0.544 12.3 0.555 1.51 0.0183 8.08 0.594 14.8 1.29 1.62 0.17 5.91 0.449 9.52 0.62 5.76 0.273 6.61 0.203 6.9-0.566 0.43-1.12 1.27-1.12 2.09 7e-3 0.561 0.767 1.81 0.87 9.43 0.774 8.37-0.105 8.82-0.0577 9.64 1.02 0.934 1.24 1.31 1.27 14.2 1.13 5.77-0.062 6.47-0.175 7.16-1.15 0.721-1.03 1.27-1.08 10.5-0.985 8.82 0.0907 9.96-3e-3 11.9-0.979 4.04-2.03 17.3-2.39 35.3-0.955 6.92 0.551 10.5 0.633 11.4 0.262 2.1-0.798 5.24-0.651 7.22 0.336 1.26 0.627 2.51 0.783 4.44 0.555 2.46-0.292 2.82-0.187 4.27 1.27 1.53 1.53 1.77 1.59 6.25 1.54 4.72-0.0533 7.36 0.333 8.52 1.25 0.396 0.311 0.984 0.314 1.53 9e-3 0.489-0.274 2.01-0.317 3.38-0.0971 1.37 0.22 5.58 0.699 9.35 1.06 5.99 0.581 6.97 0.563 7.78-0.145 0.782-0.683 1.82-0.734 6.57-0.324 3.1 0.267 6.84 0.49 8.32 0.494 1.48 4e-3 4.25 0.466 6.17 1.03 1.92 0.56 5.42 1.26 7.78 1.55 5.44 0.668 8.97 1.35 9.88 1.91 0.391 0.242 1.78 1.44 3.1 2.65 2.79 2.59 3.62 2.89 8.07 2.96 3.64 0.0585 4.51 0.665 3.14 2.18-0.587 0.649-0.697 1.11-0.321 1.34 1.13 0.698 0.536 1.3-1.44 1.47-1.85 0.153-2.07 0.349-2.74 2.48-0.671 2.12-0.648 2.37 0.268 3.04 0.55 0.403 1.62 0.61 2.37 0.46 1.03-0.204 1.83 0.154 3.19 1.42 1.3 1.22 1.63 1.81 1.14 2.11-0.749 0.463-3.25 0.134-4.11-0.54-0.557-0.436-3.31 0.609-2.94 1.12 0.106 0.148-0.083 0.785-0.421 1.42-0.541 1.01-0.44 1.22 0.849 1.72 0.805 0.316 4.54 0.689 8.3 0.829s7.08 0.406 7.38 0.591c0.912 0.564 0.606 1.35-0.526 1.35-1.29 0-5.37 1.71-5.37 2.25 0 0.211-1.91 0.255-4.23 0.0966-2.66-0.18-4.36-0.0795-4.58 0.27-0.561 0.907 5.11 2.12 11.8 2.51 1.77 0.105 5.39 0.321 8.05 0.48 2.66 0.159 7.97 0.448 11.8 0.641 6.9 0.348 6.99 0.369 8.45 1.98 0.812 0.896 1.48 2.07 1.48 2.61 0 1.36 2.97 3.04 6.12 3.46 1.53 0.204 3.08 0.798 3.7 1.42 1.73 1.73 4.71 2.21 21.9 3.57 6.78 0.531 12.5 1.18 12.8 1.44 1.07 1.1 1.06 3.17-0.035 4.47-1.07 1.26-1.32 1.31-7.32 1.19-5.34-0.102-6.13-0.0101-5.58 0.65 0.351 0.423 1.22 0.915 1.93 1.09 0.713 0.179 1.95 0.927 2.74 1.66l1.44 1.34h-1.84c-1.82 0-1.83 0.0243-1.63 2.12 0.184 1.93 0.071 2.16-1.25 2.49-0.839 0.211-2.79-6e-3 -4.61-0.513-1.74-0.483-3.84-0.877-4.67-0.877-1.46 0-2.8 0.826-2.8 1.73 0 0.617 2.54 1.54 5.08 1.85 2.58 0.31 2.77 0.417 3.13 1.78 0.264 1.01 0.027 1.08-3.56 1.09-4.73 0.0102-6.36 0.761-2.97 1.37 1.29 0.232 2.91 0.361 3.59 0.285 0.68-0.0755 1.83 0.25 2.55 0.723 0.722 0.473 1.31 0.75 1.31 0.617 0-0.134 0.785 4e-3 1.74 0.306 0.96 0.302 3.67 0.879 6.03 1.28 3.65 0.623 4.49 0.974 5.64 2.34 0.74 0.884 2.01 1.77 2.82 1.96 0.812 0.194 1.48 0.549 1.48 0.788 0 0.542-2.79 1.18-5.63 1.28-1.18 0.0434-2.71 0.39-3.39 0.77s-1.98 0.614-2.87 0.52c-0.897-0.0941-1.66-0.0503-1.7 0.0973-0.098 0.369 1.8 3.07 3.27 4.65 1.78 1.92 1.51 2.26-1.61 1.96-6.39-0.598-6.88-0.532-8.19 1.11-0.938 1.18-1.55 1.48-2.6 1.28-0.82-0.157-1.98 0.136-2.87 0.728-1.85 1.22-4.55 1.27-7.88 0.132-2.84-0.968-3.63-0.702-2.3 0.77 0.49 0.542 0.891 1.34 0.891 1.77 0 0.46 2.23 1.88 5.4 3.44 2.97 1.46 5.74 3.03 6.15 3.48 1.05 1.16 0.252 2.12-2.05 2.5-1.57 0.254-2.74-0.0667-5.86-1.6-4.38-2.15-18.5-6.35-21.3-6.35-1.03-2e-3 -2.93 0.138-4.21 0.311-1.82 0.247-2.66 0.0809-3.84-0.76-1.72-1.22-5.87-1.5-5.97-0.405-0.123 1.34 0.165 2.83 0.645 3.33 1.08 1.12 0.331 1.44-3.13 1.32-3.79-0.123-4.21-0.0298-3.85 0.852 0.429 1.03 6.25 5.64 7.13 5.64 0.485 0 0.882 0.233 0.882 0.517s1.02 1.5 2.28 2.71c1.88 1.8 2.14 2.28 1.48 2.71-1.58 1.03-3.13 1.12-4.74 0.286-2.12-1.09-2.03-1.12-2.69 0.761-0.708 2.03-2.07 2.08-5.72 0.186-8.06-4.18-7.74-4.06-8.64-3.16-0.457 0.457-0.593 0.832-0.302 0.832 0.487 0 4.38 4.9 4.38 5.51 0 0.832-3.96 2.04-5.53 1.69-0.946-0.213-2.69-0.457-3.87-0.542-1.18-0.0847-3.06-0.316-4.17-0.514-1.22-0.216-2.66-0.0957-3.62 0.302-1.3 0.539-1.76 0.525-2.49-0.0741-0.488-0.405-0.944-0.616-1.01-0.468-0.185 0.393-6.69-3.35-6.69-3.84 0-0.447-4.4-2.6-5.31-2.6-0.296 0-1.67-0.604-3.06-1.34-3.66-1.95-6.63-1.83-8.81 0.356-1.23 1.23-2.43 1.81-4.39 2.12-3.49 0.552-4.54 1.35-3.41 2.61 0.45 0.498 0.819 1.29 0.819 1.77 0 0.997-1.7 0.853-4.97-0.421-2.22-0.865-2.44-0.762-1.14 0.536 0.478 0.478 0.726 1.01 0.55 1.19-0.487 0.487-6.39-2.23-9.51-4.37-3.21-2.2-5.08-2.53-4.63-0.789 0.207 0.792 0.081 1.03-0.436 0.837-0.4-0.154-1.65-0.433-2.78-0.621-1.13-0.188-3.26-0.848-4.73-1.47-1.99-0.833-4.07-1.16-8.01-1.27-2.93-0.0814-6.01-0.432-6.85-0.78-0.999-0.414-3.6-0.547-7.53-0.385-3.3 0.136-7.09 0.0447-8.42-0.203-1.52-0.283-2.61-0.25-2.95 0.0896-0.78 0.78-3.66 0.663-5.81-0.236-1.33-0.557-4.65-0.822-11.7-0.939-9.42-0.155-9.96-0.108-11.5 0.999-1.2 0.866-3.05 1.33-7.25 1.81-3.1 0.356-6.63 0.98-7.85 1.39-1.22 0.407-4.96 0.874-8.32 1.04s-6.71 0.411-7.44 0.551c-0.738 0.14-3.94 0.477-7.12 0.749-3.18 0.272-5.96 0.605-6.17 0.741-2.31 1.43-47.4 1.3-66.1-0.184-3.4-0.269-8.35-0.645-11-0.836-6.62-0.475-8.57-0.638-12.6-1.05l-3.49-0.357 3.22 2.31-4.17-0.275c-2.61-0.172-4.05-0.0813-3.85 0.241 0.176 0.284 0.544 0.378 0.819 0.208 0.275-0.17 0.5-0.0934 0.5 0.17 0 0.268-5.5 0.466-12.5 0.45-6.86-0.016-15.9 0.279-20 0.656-9.61 0.876-19.3 1.48-35.4 2.22-14.7 0.671-15.1 0.716-18.8 1.88-2.38 0.765-7.55 0.853-45.9 0.782-59.3-0.11-70.5-0.372-86.4-2.03-2.8-0.291-7.15-0.696-9.66-0.9-2.51-0.203-4.71-0.457-4.89-0.564-0.642-0.385-13.7-0.376-14.9 0.0102-0.729 0.231-1.13 0.69-0.972 1.11 0.372 0.969-0.764 1.32-3.23 0.998-1.71-0.223-9.72-0.25-20.8-0.0711-1.18 0.0188-4.8 5e-3 -8.05-0.0306-3.25-0.036-6.69 0.044-7.65 0.178-1.95 0.272-2.2-0.0774-0.805-1.14 0.856-0.65 0.812-0.715-0.498-0.73-0.791-9e-3 -1.82-0.397-2.28-0.861-0.488-0.488-0.844-0.587-0.844-0.237 0 0.334-0.225 0.468-0.5 0.298s-0.655-0.057-0.846 0.251c-0.59 0.954-4.15 0.426-4.43-0.657-0.138-0.527-0.592-0.958-1.01-0.958-0.418 0-0.88-0.316-1.03-0.701-0.148-0.386-1.22-0.758-2.39-0.826-1.83-0.108-2.07 6e-3 -1.78 0.835 0.486 1.37 2.39 3.38 3.21 3.38 0.916 0 2.53 2.48 2.08 3.2-0.19 0.308-0.68 0.56-1.09 0.56-1.45 0-1.4 1.14 0.209 4.44 0.896 1.84 1.61 3.46 1.58 3.61-0.024 0.148 0.574 1.37 1.33 2.73 0.791 1.42 1.35 3.24 1.32 4.29-0.03 1.01-0.153 1.54-0.274 1.18-0.362-1.07-5.79-3.91-9.53-4.98l-3.5-1-0.604 1.13c-0.483 0.902-0.431 1.25 0.261 1.76 0.954 0.697 0.637 1.41-0.442 0.996-0.381-0.146-1.18 0.581-1.81 1.65-1.02 1.74-1.34 1.91-3.53 1.91-1.32 0-2.55 0.242-2.73 0.539-0.408 0.661-2.91 0.119-4.07-0.879-2.31-1.99-3.4-0.283-3.23 5.04 0.084 2.61-0.078 3.43-0.722 3.68-0.457 0.175-0.729 0.483-0.605 0.684 0.401 0.649-2.09 0.405-2.65-0.259-0.585-0.701-6.58-2.91-7.82-2.89-0.423 9e-3 0.318 0.968 1.65 2.13 2.81 2.46 2.18 2.74-1.64 0.737-2.92-1.52-7.48-2.36-7.48-1.36 0 0.323 0.504 0.857 1.12 1.19 1.62 0.865 0.989 1.12-1.16 0.472-1.01-0.307-3.51-0.617-5.55-0.689-3.13-0.11-3.99 0.0642-5.56 1.13-1.79 1.21-2.03 1.24-6.87 0.698-6.83-0.761-6.78-0.766-6.58 0.626 0.108 0.748 0.665 1.3 1.51 1.5 2.54 0.596 0.075 1.17-3.42 0.791-3.15-0.338-3.42-0.283-3.69 0.764-0.162 0.62-0.171 1.6-0.019 2.18 0.237 0.905 0.597 1.01 2.54 0.746 2.06-0.282 2.39-0.156 3.7 1.4 0.966 1.15 1.44 2.33 1.44 3.6 0 1.88-0.017 1.89-2.01 1.63-1.11-0.145-2.56-0.44-3.22-0.656-1.04-0.337-1.21-0.201-1.21 0.978 0 0.753-0.24 2-0.534 2.77-0.294 0.772-0.622 5.03-0.73 9.46-0.111 4.55-0.438 8.3-0.751 8.61-0.931 0.931-2.5 0.259-3.05-1.31-0.357-1.01-0.318-2.25 0.123-3.89 0.355-1.33 0.645-3.36 0.645-4.52 0-2.62-1.02-7.57-1.74-8.47-0.297-0.369-0.329-0.675-0.072-0.679 0.258-5e-3 0.141-0.216-0.259-0.469-0.601-0.381-0.571-0.699 0.169-1.83 0.553-0.844 0.832-2.16 0.728-3.42-0.157-1.9-0.281-2.04-1.69-1.89-1.14 0.121-1.59-0.103-1.8-0.895-0.152-0.581-0.928-1.33-1.72-1.66-2.08-0.861-5.34 0.568-6.14 2.69-0.328 0.868-0.966 1.59-1.42 1.6-0.454 0.0117-0.139 0.392 0.706 0.849 1.29 0.701 6.26 5.41 6.26 5.94 0 0.652-3.4-0.0609-5.59-1.17-3.08-1.56-5.7-1.86-4.59-0.518 0.941 1.13-0.713 2.36-3.23 2.39-1.03 0.0137-2.23 0.246-2.66 0.517-0.5 0.316-1.43 0.218-2.62-0.277-1.98-0.829-3.5-1.05-2.46-0.357 0.326 0.217 0.76 1.3 0.964 2.41 0.227 1.23 0.672 2.01 1.15 2.01 0.429 0 0.781 0.483 0.781 1.07 0 0.596 0.358 1.07 0.805 1.07 0.443 0 0.805 0.362 0.805 0.805 0 0.495-0.503 0.805-1.31 0.805-1.03 0-1.63 0.604-2.82 2.8-0.831 1.54-2.33 3.36-3.34 4.03-1.01 0.676-2.09 1.75-2.42 2.39-0.703 1.4-1.28 1.59-2.85 0.964zm-5.61-13.9c0.114-0.774-0.111-1.17-0.671-1.17-0.548 0-0.842 0.485-0.842 1.39 0 1.68 1.26 1.5 1.51-0.221zm12.3-7.17c-0.332-0.995-1.49-1.16-1.49-0.212 0 0.467 0.382 0.85 0.85 0.85 0.467 0 0.754-0.287 0.637-0.637zm-23.4-13.2c-0.07-0.652 0.083-1.19 0.34-1.19 0.64 0 1.06-2.46 0.562-3.27-0.311-0.503-0.854-0.444-2.33 0.255-1.55 0.736-1.82 1.09-1.42 1.83 0.273 0.505 0.64 1.6 0.816 2.43 0.396 1.87 2.23 1.82 2.03-0.0576zm83.8-5.96c0.34-0.549-0.906-1.13-2.42-1.13-0.566 0-1.03 0.362-1.03 0.805 0 0.888 2.94 1.16 3.45 0.325zm9.96-3.07c0-0.183-0.664-1.38-1.48-2.66-1.4-2.2-2.66-3.25-3.23-2.68-0.533 0.533 0.459 2.03 1.53 2.31 0.768 0.201 1.03 0.602 0.852 1.29-0.153 0.585 0.108 1.22 0.628 1.52 1.04 0.605 1.69 0.69 1.69 0.219zm141-29.4c0-0.116-0.362-0.35-0.805-0.52-0.443-0.17-0.805-0.075-0.805 0.211 0 0.286 0.362 0.52 0.805 0.52 0.443 0 0.805-0.0949 0.805-0.211zm3.89-0.169c-0.668-0.128-1.63-0.124-2.15 0.0108-0.513 0.134 0.033 0.239 1.21 0.233 1.18-6e-3 1.6-0.116 0.933-0.244zm196-0.14c0-0.286-0.362-0.381-0.805-0.211-0.443 0.17-0.805 0.404-0.805 0.52 0 0.116 0.362 0.211 0.805 0.211 0.443 0 0.805-0.234 0.805-0.52zm-203-0.395c-0.66-0.127-1.87-0.131-2.68-7e-3 -0.816 0.123-0.276 0.228 1.2 0.232 1.48 4e-3 2.14-0.0969 1.48-0.224zm-100-1.58c0.357-1.07-3.17-2.01-6.98-1.86-1.31 0.0519-1.42 0.19-0.939 1.1 0.794 1.48 7.46 2.12 7.92 0.756zm501-110c-0.145-0.234-0.746-0.425-1.34-0.425s-0.934 0.226-0.763 0.503c0.171 0.276 0.772 0.468 1.34 0.425s0.908-0.269 0.763-0.503zm-19.2-2.88c5.56-1.62 2.41-2.18-3.41-0.612-1.25 0.339-2.28 0.805-2.28 1.04 0 0.676 2.56 0.485 5.69-0.424zm-471-2.83c0.315-0.315 0.313-0.623-0.01-0.82-0.717-0.443-7.63 0.257-7.63 0.773 0 0.958 6.69 0.999 7.64 0.0471zm15.4-1.16c0-0.295-0.966-0.537-2.15-0.537s-2.15 0.242-2.15 0.537c0 0.295 0.966 0.537 2.15 0.537s2.15-0.242 2.15-0.537zm-1.85-2.64c-0.167-0.27-1.99-1.15-4.04-1.96-3.08-1.21-3.88-1.35-4.56-0.786-1.99 1.65-0.793 2.5 4.01 2.86 1.33 0.1 2.97 0.224 3.65 0.276 0.682 0.0516 1.1-0.127 0.936-0.397zm-19.7-0.618c1.01-0.0398-4.56-1.67-5.81-1.7-2.8-0.0715-3.76 0.186-3.76 1.01 0 0.75 0.476 0.837 3.22 0.588 1.85-0.167 3.36-0.0691 3.54 0.23 0.178 0.287 0.68 0.385 1.12 0.217 0.437-0.168 1.2-0.321 1.69-0.34zm39.3 0.067c0-0.278-0.242-0.654-0.537-0.837s-0.537-0.796-0.537-1.36c0-1.12 2.16-1.98 3.26-1.29 0.353 0.218 1.6 0.478 2.78 0.578 1.18 0.0998 2.43 0.419 2.78 0.708 0.979 0.812 21.4 2.48 21.6 1.77 0.127-0.382 1.62-0.492 4.32-0.321 3.81 0.24 4.05 0.195 3.09-0.578-1.25-1.01-1.48-2.78-0.468-3.61 0.838-0.695 7.73-0.278 10.1 0.61 0.795 0.302 4.24 0.549 7.65 0.549 5.45 0 6.12-0.0974 5.54-0.805-0.368-0.443-1.11-0.805-1.64-0.805-0.537 0-1.14-0.269-1.35-0.598-0.216-0.35-1.19-0.488-2.35-0.332-1.15 0.154-2.53-0.0375-3.29-0.456-0.717-0.397-2.46-0.731-3.87-0.741-1.41-0.0104-3.95-0.464-5.64-1.01-3.86-1.24-17.1-1.59-21.1-0.553-2.23 0.572-3.02 0.547-5.18-0.165-1.4-0.462-3.63-0.781-4.96-0.708-1.44 0.0789-3.4-0.28-4.86-0.894-2.42-1.02-2.47-1.02-4.83 0.0565-3.05 1.38-4.56 1.37-8.65-0.0415-2.76-0.956-3.6-1.05-5.01-0.537-2.4 0.866-4.12 0.762-6.87-0.417-2.57-1.1-4.13-2.83-4.14-4.59-0.022-2.9-0.461-2.98-13.4-2.26-7.34 0.406-9.24 0.73-7.63 1.3 0.386 0.137 1.28 0.829 1.99 1.54 1.6 1.6 2.12 1.6 4.92-9e-3 2.94-1.68 3.44-1.07 0.92 1.11-1.93 1.67-1.97 1.77-1.14 3.03 0.514 0.784 1.56 1.42 2.64 1.6 0.98 0.162 3.39 1.04 5.36 1.96 1.97 0.914 3.96 1.66 4.44 1.66 0.967 0 5.36 2.17 8.63 4.26 1.19 0.758 2.64 1.67 3.22 2.02 1.29 0.774 14.2 0.954 14.2 0.197zm-5.6-4.2c-0.788-0.788-0.124-1.2 1.93-1.2 1.23 0 2.11 0.128 1.95 0.285-0.513 0.513-3.56 1.23-3.88 0.918zm-44-12.4c0.28-0.267 0.993-0.609 1.58-0.761 0.59-0.152-0.115-0.236-1.57-0.186-1.57 0.0532-2.73 0.362-2.86 0.761-0.257 0.781 2.06 0.933 2.85 0.186zm-7.63-10.9c0.669-1.06 0.102-2.59-0.959-2.59-0.446 0-0.96 0.59-1.14 1.31-0.582 2.32 0.883 3.21 2.1 1.28zm-1.21-6.72c0.734-1.93 0.431-1.98-1.64-0.245-1.08 0.902-1.64 1.76-1.41 2.14 0.578 0.935 2.41-0.199 3.05-1.89zm-196-0.161c-0.182-0.295-0.861-0.533-1.51-0.529-0.956 7e-3 -1.03 0.106-0.371 0.529 1.06 0.683 2.3 0.683 1.88 0zm3.49-11.3c2.71-1.64 3.66-3.38 1.67-3.05-0.559 0.0924-1.52-0.284-2.13-0.836-0.916-0.828-1.56-0.934-3.68-0.609-2.19 0.337-2.39 0.462-1.36 0.852 1.25 0.474 1.39 0.837 1.22 3.31-0.08 1.22 0.123 1.48 1.15 1.47 0.686-9.8e-4 2.09-0.515 3.13-1.14zm38-5.09-0.167-2.62-5.1-0.584c-5.75-0.659-6.43-0.564-6.06 0.843 0.191 0.729 0.969 1.09 2.91 1.36 1.46 0.2 3.04 0.763 3.53 1.25 1.85 1.87 4.15 3.29 4.6 2.84 0.255-0.255 0.388-1.64 0.297-3.09zm-13.9-3.4c0-0.715-2.21-2.18-3.29-2.18-0.771 0-0.813 0.196-0.283 1.34 0.44 0.949 1.05 1.34 2.1 1.34 0.812 2e-3 1.48-0.224 1.48-0.502zm-31.4-0.567c-0.182-0.295-0.74-0.533-1.24-0.529-0.782 7e-3 -0.796 0.0801-0.102 0.529 1.05 0.679 1.76 0.679 1.34 0zm71.8 242c0.144-0.295-0.183-0.959-0.726-1.48-0.544-0.517-0.988-0.692-0.988-0.39 0 0.302-0.604 0.153-1.34-0.33-0.738-0.484-1.34-0.626-1.34-0.317 0 0.309-0.544 0.732-1.21 0.939-0.664 0.207-1.36 0.609-1.54 0.893-0.19 0.296-1.22-0.0381-2.42-0.782-1.15-0.714-2.51-1.45-3.02-1.64-0.517-0.191-0.939-0.716-0.939-1.17 0-0.452-0.242-0.822-0.537-0.822s-0.537-0.256-0.537-0.568c0-0.313 0.208-0.44 0.461-0.283 0.402 0.249 0.432-0.959 0.066-2.64-0.25-1.14 0.071-1.79 1.78-3.61 1.46-1.55 2.29-1.94 4.72-2.25 3.09-0.386 5.87 0.482 6.22 1.94 1.07 4.53 1.17 6.54 0.344 7.14-0.745 0.545-0.621 0.683 0.891 0.985 1.65 0.33 1.74 0.459 1.41 2.08-0.19 0.95-0.618 1.98-0.951 2.28-0.374 0.342-0.505 0.348-0.343 0.0166zm-40.9-2.2c0-0.956 1.17-4.76 2.84-9.24 0.705-1.89 1.3-2.75 1.78-2.57 0.393 0.151 0.88 6e-3 1.08-0.322 0.239-0.386 0.121-0.443-0.334-0.162-0.455 0.281-0.573 0.224-0.334-0.162 0.367-0.594 1.96-0.302 1.93 0.354-0.01 0.19-0.485 2.04-1.06 4.1-0.573 2.07-1.05 4.27-1.06 4.91-0.021 1.55-1.57 3.23-3.37 3.64-1.15 0.26-1.48 0.138-1.48-0.542zm1.34-0.753c-0.182-0.295-0.438-0.537-0.568-0.537s-0.237 0.242-0.237 0.537c0 0.295 0.256 0.537 0.568 0.537 0.313 0 0.419-0.242 0.237-0.537zm17.3-10.4c0.366-3.13 0.705-4.19 1.23-3.86 0.287 0.177 0.521 0.0663 0.521-0.246 0-0.313-0.34-0.568-0.755-0.568-0.513 0-0.656-0.378-0.446-1.18 0.294-1.13 0.327-1.13 0.717-0.134 0.294 0.752 0.439 0.819 0.515 0.24 0.058-0.443 0.308 0.761 0.556 2.68 0.468 3.62 0.214 4.38-1.56 4.65-0.816 0.125-0.95-0.147-0.783-1.58zm-96.2-6.79c-0.397-0.642 0.613-1.28 1.33-0.837 0.6 0.371 0.206 1.34-0.546 1.34-0.26 0-0.612-0.225-0.782-0.5zm42.1-4.81c0-0.264 0.382-0.626 0.849-0.805 1.31-0.504 1.49-0.395 0.761 0.479-0.74 0.892-1.61 1.07-1.61 0.326zm16.1-1.94c0.368-0.443 0.789-0.805 0.936-0.805 0.148 0-0.032 0.362-0.4 0.805-0.368 0.443-0.789 0.805-0.937 0.805s0.032-0.362 0.4-0.805zm-11-0.814c-0.29-0.469-0.521-1.4-1-4.02-0.054-0.295-0.287-0.839-0.517-1.21-0.274-0.439-0.084-0.693 0.552-0.734 6.38-0.416 6.84-0.408 5.93 0.114-0.519 0.299-1.18 0.399-1.46 0.222-0.287-0.177-1.03-0.0526-1.64 0.277-0.818 0.438-0.969 0.78-0.561 1.27 0.389 0.469 0.376 0.855-0.043 1.27-0.444 0.444-0.3 0.523 0.55 0.3 1.31-0.342 1.35-0.232 0.627 1.67-0.53 1.39-1.82 1.83-2.43 0.831zm604-5.15c0.178-0.178 0.641-0.197 1.03-0.0425 0.428 0.171 0.301 0.299-0.324 0.324-0.566 0.023-0.883-0.104-0.704-0.282zm-689-1.28c-0.185-0.3 0.04-0.546 0.5-0.546 0.943 0 1.08 0.322 0.337 0.782-0.275 0.17-0.651 0.0633-0.837-0.237zm302-5.64c-0.17-0.443-0.075-0.805 0.211-0.805 0.286 0 0.52 0.362 0.52 0.805 0 0.443-0.095 0.805-0.211 0.805-0.116 0-0.35-0.362-0.52-0.805zm-210-1.2c-1.15-3.04 0.487-6.34 3.41-6.87 1.18-0.215 1.39-0.0146 1.7 1.63 0.211 1.12 0.666 1.88 1.13 1.88 1.1 0 1.02 0.183-1.19 2.64-2.38 2.66-4.22 2.92-5.06 0.72zm-92-1.82c-0.462-0.747 0.432-1.85 2.89-3.57 2.92-2.04 10.3-5.7 10.7-5.31 0.396 0.396-0.844 2.51-1.47 2.51-0.298 0-1.7 1.09-3.12 2.42-1.42 1.33-2.83 2.42-3.13 2.42s-1.14 0.471-1.87 1.05c-1.27 1-3.47 1.28-3.96 0.495zm17.6-2.16c0.114-0.342 0.999-1.05 1.97-1.57 0.967-0.519 2.16-1.28 2.66-1.68 1.22-1.01 6.27-3.64 6.99-3.64 1.46 0-0.312 1.56-4.5 3.96-2.51 1.44-4.7 2.83-4.86 3.09-0.436 0.706-2.5 0.567-2.26-0.152zm283-13.3c0-0.282 0.89-0.398 1.98-0.259 2.78 0.356 2.92 0.771 0.259 0.771-1.23 0-2.24-0.23-2.24-0.512zm-339-0.382c-0.197-0.197-0.358-1.01-0.358-1.8 0-1.26 0.401-1.6 3.27-2.73 1.8-0.709 3.5-1.71 3.78-2.23s1.12-0.939 1.87-0.939c1.71 0 2.58-0.472 6.94-3.77 3.3-2.5 5.69-3.32 6.39-2.19 0.661 1.07-0.469 3.87-2.31 5.72-2.33 2.34-5.56 4.09-8.08 4.38-1.01 0.113-3.32 1.04-5.15 2.06-3.12 1.75-5.53 2.31-6.35 1.5zm646-4.26c0.178-0.178 0.641-0.197 1.03-0.0423 0.428 0.171 0.301 0.299-0.324 0.324-0.566 0.0233-0.883-0.104-0.704-0.282zm-608-2.41c0.242-0.743 4.65-2.5 6.47-2.59 2.87-0.131-1.22 2.45-4.8 3.03-1.5 0.244-1.87 0.147-1.68-0.441zm42.5-4.5c-0.438-1.14-0.18-1.34 2.27-1.74l2.07-0.336-0.858 1.3c-1.03 1.56-3.02 2-3.49 0.776zm-2.35-5.61c0-0.455 3.25-2.73 3.9-2.73 0.158 0-0.391 0.725-1.22 1.61-1.48 1.58-2.68 2.09-2.68 1.12zm-60.5-22.2c-0.155-0.25-0.197-0.519-0.093-0.597 2.92-2.21 5.82-2.67 5.82-0.925 0 1.65-4.85 2.94-5.73 1.52zm51.9-33.1c0-0.554 0.383-1.33 0.851-1.71s1.37-1.8 2-3.15c1.5-3.18 6.46-8.08 9.51-9.38 1.32-0.563 3.85-1.68 5.62-2.47s4.79-1.62 6.7-1.84c1.92-0.212 3.77-0.624 4.12-0.916 0.609-0.506 6.47-1.6 9.29-1.74 0.938-0.045 1.53 0.352 2.02 1.36 1.34 2.76-0.257 3.84-8.17 5.55-7.16 1.54-10.3 2.77-12.5 4.8-1.1 1.05-2.23 1.9-2.51 1.91-0.276 2e-3 -1.62 0.95-2.99 2.11-1.37 1.16-3.4 2.48-4.51 2.94s-2.74 1.45-3.62 2.19c-2.04 1.72-5.82 1.94-5.82 0.341zm16.8-20.3c-2.45-0.419-1.96-4.88 0.555-5.04 5.5-0.347 8.88 1.34 5.35 2.67-0.812 0.307-2.2 1.01-3.09 1.56-0.886 0.554-2.15 0.913-2.82 0.8zm6.43-10.3c0.369-0.59 1.13-1.07 1.7-1.07 0.994 0 0.996 0.0355 0.056 1.07-0.534 0.59-1.3 1.07-1.7 1.07-0.592 0-0.603-0.199-0.056-1.07zm-6.57-3.24c0-0.882 2.17-1.45 4.54-1.18 2.56 0.288 2.96 0.545 1.89 1.22-1.08 0.684-6.43 0.653-6.43-0.0383zm23.7-5.67c-0.399-0.451-0.588-0.957-0.42-1.13 0.415-0.415 3.56 0.924 3.56 1.51 0 0.783-2.36 0.49-3.14-0.389zm13.3 4e-3c-0.621-0.748-0.549-0.833 0.563-0.671 0.701 0.102 1.37 0.488 1.5 0.857 0.318 0.966-1.22 0.827-2.06-0.186zm-26.8-7.49c-1.13-1.36 0.64-4.41 3.11-5.38 2.33-0.916 2.57-1.05 5.49-3.13 1.65-1.18 2.35-1.41 2.81-0.946 0.464 0.464 0.305 0.948-0.646 1.96-1.08 1.15-1.18 1.53-0.651 2.68 0.868 1.9 0.438 2.5-3.01 4.19-3.39 1.66-6.05 1.89-7.1 0.626zm-55.5-2.89c-0.138-0.224 0.344-0.726 1.07-1.12 0.728-0.39 1.32-0.876 1.32-1.08 0-0.204 0.556-0.265 1.24-0.135 0.68 0.13 2.67-0.248 4.42-0.84 1.75-0.592 3.29-0.973 3.42-0.847 0.302 0.302 0.256 0.327-3.17 1.77-3.93 1.65-7.99 2.75-8.3 2.25zm826-2c-0.618-0.618-0.391-1.25 0.447-1.25 0.443 0 0.805 0.362 0.805 0.805 0 0.838-0.635 1.06-1.25 0.447zm-834-1.49c0-0.13 0.242-0.386 0.537-0.568 0.295-0.182 0.537-0.0759 0.537 0.237 0 0.313-0.242 0.568-0.537 0.568s-0.537-0.107-0.537-0.237zm-9.29-6.04c-1.47-0.382-0.852-1.91 0.968-2.39 0.894-0.239 2.44-0.198 3.49 0.0926 1.03 0.287 3.45 0.528 5.37 0.534 3.56 0.0114 5.22 0.537 4.65 1.47-0.321 0.52-12.7 0.776-14.5 0.301zm37.5-5.47c0.812-0.759 2.93-1.26 2.93-0.691 0 0.586-1.28 1.17-2.57 1.17-0.531 0-0.67-0.185-0.359-0.476zm4.32-1.59c1-1.17 3.97-1.63 3.97-0.619 0 0.295-0.181 0.568-0.403 0.605-0.221 0.0377-0.886 0.132-1.48 0.21-0.59 0.0777-1.53 0.326-2.08 0.551-0.978 0.399-0.978 0.378-0.015-0.746zm355-6.71c-0.817-0.597-0.858-0.805-0.237-1.19 0.991-0.618 2.68-0.864 3.57-0.522 0.544 0.209 0.576 0.533 0.136 1.36-0.669 1.25-2.06 1.39-3.47 0.358zm-310-0.72c-0.517-0.135-0.939-0.478-0.939-0.762 0-0.311 0.427-0.288 1.07 0.0582 0.59 0.316 1.07 0.687 1.07 0.824s-0.06 0.221-0.134 0.187c-0.074-0.0342-0.557-0.173-1.07-0.308zm-20.5-4.41c-2.31-0.274-2.71-0.497-2.86-1.6-0.41-2.9 2.94-2.94 5.97-0.0741 2.53 2.39 2.6 2.35-3.11 1.67zm315 0.135c-0.59-0.125-1.62-0.343-2.28-0.485-0.853-0.182-1.21-0.643-1.21-1.57 0-1.59 1.39-2.42 4.03-2.42 3.77 0 5.35 2.23 2.83 4-1.21 0.849-1.47 0.886-3.37 0.484zm-291-1.26c0.182-0.295 0.921-0.537 1.64-0.537 0.721 0 1.31 0.242 1.31 0.537 0 0.295-0.739 0.537-1.64 0.537-0.958 0-1.5-0.224-1.31-0.537zm279-11c-0.522-0.629-0.34-0.927 0.981-1.61 1.73-0.894 3.61-1.1 4-0.436 0.13 0.221 0.032 0.946-0.219 1.61-0.35 0.927-0.882 1.21-2.29 1.21-1.01 0-2.12-0.347-2.47-0.772zm-6.72-0.949c-0.583-0.338-1.91-0.799-2.95-1.03-1.04-0.226-3.22-0.882-4.84-1.46s-4.21-1.18-5.75-1.33-3.03-0.426-3.31-0.599c-0.939-0.58-18-0.707-20.6-0.152-4.27 0.932-7.11-1.17-6.54-4.85 0.156-1.01-0.06-1.21-1.3-1.21-0.818 0-2.05-0.395-2.74-0.879-1.08-0.759-1.22-1.21-0.984-3.27 0.165-1.46-0.01-2.93-0.445-3.77-0.5-0.965-0.556-1.68-0.184-2.37 0.483-0.902 0.346-0.968-1.51-0.719-1.12 0.15-3.24 0.385-4.72 0.523s-4.08 0.416-5.79 0.619c-2.66 0.317-3.21 0.229-3.83-0.624-0.842-1.15-0.627-2 1.09-4.33l1.24-1.68-2.3-0.645c-2.73-0.764-6.99-0.128-10.2 1.52-1.45 0.752-2.46 0.938-3.49 0.644-0.798-0.227-4.03-0.355-7.19-0.283-6.08 0.138-6.44 0.265-10.8 3.84-1.67 1.37-3.85 1.58-6.01 0.6-1.09-0.497-1.64-0.497-2.43 0-0.565 0.353-1.39 0.641-1.83 0.641-0.66 0-0.693-0.237-0.19-1.34 0.396-0.87 1.05-1.34 1.86-1.34 0.916 0 1.34-0.391 1.6-1.48 0.744-3.13 1.95-3.69 8.77-4.08 1.96-0.111 3.55-0.462 3.67-0.811 0.113-0.338 0.54-0.615 0.949-0.615 0.44 0 0.618 0.328 0.435 0.805-0.46 1.2 1.58 1.02 3.1-0.268 1.17-0.993 1.2-1.12 0.328-1.64-1.24-0.743-1.19-1.95 0.099-2.64 1.31-0.698 5.77-0.729 6.19-0.0423 0.175 0.282 0.681 0.374 1.13 0.203 0.444-0.171 1.83 0.0573 3.07 0.506 3.99 1.44 7.3 2.02 9.5 1.67 1.9-0.305 2.15-0.513 2.15-1.82 0-0.812-0.386-1.8-0.857-2.19-0.783-0.65-0.781-0.738 0.031-1.02 0.488-0.171 2.99-0.0865 5.55 0.189 3.34 0.358 5.56 0.315 7.82-0.151 2.94-0.607 8.95-0.498 15.2 0.277 2.13 0.263 2.28 0.196 2.28-1.01 0-0.71 0.484-1.73 1.08-2.26 0.937-0.848 2.16-0.979 9.53-1.02 8.64-0.0506 10.3-0.355 9.26-1.66-0.432-0.52-1.79-0.649-5.08-0.484-4.34 0.218-4.53 0.178-5.61-1.19-1.49-1.9-1.41-2.99 0.494-6.46 0.886-1.61 1.61-3.12 1.61-3.34 0-0.226-0.703-0.308-1.56-0.182-0.859 0.126-1.97 2e-3 -2.46-0.276-0.736-0.412-0.328-0.776 2.22-1.98 2.45-1.16 3.33-1.35 4.07-0.891 1.46 0.915 3.38 0.697 4.47-0.51 1.54-1.7 3.91-2.53 8.28-2.89 2.26-0.188 4.59-0.712 5.34-1.2 0.738-0.483 2.89-0.976 4.85-1.11 3.38-0.231 4.57 0.0409 7.43 1.69 1.01 0.583 2.03 0.58 5.9-0.0189 4.99-0.772 9.5-1.93 12.3-3.17 2.7-1.18 8.75-2.45 11.4-2.4 1.33 0.0266 3.5 0.0707 4.83 0.098 1.33 0.0274 5.07-0.464 8.32-1.09 3.25-0.627 7.23-1.15 8.86-1.16 1.62-0.0105 3.92-0.235 5.1-0.499 1.18-0.264 3.84-0.633 5.9-0.82 5.58-0.506 7.31-0.838 8.55-1.64 2.84-1.85 9.01-2.14 11.2-0.516 0.815 0.596 0.9 1.08 0.523 2.99-0.623 3.15-2.43 3.76-9.32 3.13-5-0.454-6.41-0.355-18.5 1.3-3.25 0.446-7.4 0.956-9.23 1.13-1.83 0.177-4.36 0.706-5.64 1.18-1.47 0.543-4.85 0.949-9.29 1.12-4.58 0.173-7.38 0.517-8.15 1-0.644 0.405-2.21 0.89-3.49 1.08-3.76 0.549-8.05 1.82-10.6 3.14-1.33 0.68-3.61 1.39-5.06 1.58-1.45 0.187-3.02 0.676-3.49 1.09-0.83 0.734-3.32 2.1-7.01 3.85-1.03 0.487-3.81 1.02-6.17 1.18-3.33 0.226-4.79 0.596-6.44 1.63-3.01 1.89-3.83 2.78-3.03 3.28 0.353 0.218 0.488 0.799 0.299 1.29-0.291 0.759-0.07 0.846 1.46 0.578 0.991-0.174 2.59-0.555 3.56-0.848 0.965-0.293 3.53-0.609 5.7-0.704 3.13-0.137 4.4-0.46 6.15-1.57 1.21-0.766 2.8-1.39 3.52-1.39s1.88-0.211 2.56-0.468c1.81-0.682 3.28 0.0801 4.48 2.32 1.05 1.96 1.05 1.99 0.015 2.74-0.633 0.466-2.32 0.767-4.3 0.767-1.79 0-4.1 0.26-5.13 0.577-1.03 0.317-4.05 0.556-6.71 0.531-3.82-0.0369-5.24 0.171-6.77 0.995-1.07 0.573-2.88 1.2-4.03 1.39-1.15 0.192-2.45 0.474-2.89 0.628-0.443 0.154-3.1 0.332-5.9 0.396-5.91 0.134-8.69 0.909-9.9 2.76-0.663 1.01-1.33 1.31-2.89 1.31-1.12 0-3.28 0.624-4.81 1.39-4.12 2.05-7.09 1.05-7.09-2.39 0-0.955-0.292-1.06-2.55-0.891-1.4 0.103-3.15 0.421-3.89 0.706-0.738 0.285-2.1 0.684-3.03 0.886-0.929 0.202-2.12 0.84-2.64 1.42-0.913 1.01-0.909 1.08 0.079 1.84 0.68 0.518 1.88 0.713 3.53 0.574 2.16-0.183 2.54-0.0629 2.79 0.889 0.268 1.03 0.55 1.08 4.21 0.733 5.08-0.475 9.75-1.32 12.8-2.31 1.33-0.435 3.99-1 5.9-1.27 1.92-0.26 4.57-0.629 5.89-0.819s3.29-0.911 4.39-1.6c1.77-1.12 2.7-1.27 8.34-1.35 4.77-0.0728 7.05-0.356 9.2-1.14 1.57-0.576 3.32-0.926 3.89-0.778 0.586 0.153 1.66-0.229 2.5-0.887 1.4-1.1 2.06-1.16 14.1-1.25 8.83-0.0652 14.2-0.36 18-0.981 4.88-0.807 7.48-1.19 14.8-2.18 3.07-0.417 4.99 1.06 4.73 3.65-0.268 2.67-1.05 2.83-10.5 2.13-6.03-0.45-9.59-0.474-12.3-0.0823-6.71 0.985-12.1 1.19-14.3 0.55-1.64-0.49-2.69-0.451-5.16 0.19-1.71 0.443-3.64 0.666-4.3 0.495-0.715-0.187-1.92 0.122-3.03 0.777-3.89 2.3-19.7 7.16-23.8 7.31-1.26 0.047-2.69 0.486-3.26 0.997-1.34 1.22-4.04 1.71-5.39 0.987-0.812-0.434-1.68-0.39-3.42 0.176-3.91 1.27-8.63 1.91-11.5 1.56-1.53-0.181-3.46-0.157-4.29 0.0542l-1.52 0.384 1.34 0.688c0.738 0.379 2.24 0.85 3.34 1.05 2.42 0.436 2.96 1.15 1.82 2.41-1.42 1.57-1.09 3.1 0.753 3.47 1.47 0.295 2.33 1.42 1.07 1.42-1.35 0-0.26 0.969 2.82 2.51 4.97 2.48 6.29 2.78 16 3.67 4.87 0.444 9.82 1.06 11 1.37 1.18 0.311 4.04 0.779 6.35 1.04 2.31 0.262 4.79 0.859 5.5 1.33 3.4 2.22-0.759 6-4.33 3.93zm-354-3.11c0-0.295 0.242-0.537 0.537-0.537 0.295 0 0.537 0.242 0.537 0.537 0 0.295-0.242 0.537-0.537 0.537-0.295 0-0.537-0.242-0.537-0.537zm62.3-1.62c0-0.292 0.604-0.531 1.34-0.531s1.34 0.189 1.34 0.42-0.604 0.47-1.34 0.531c-0.738 0.0611-1.34-0.128-1.34-0.42zm296-2.74c-0.535-0.311-3.8-0.698-7.25-0.858-6.16-0.286-9.76-1.13-9.76-2.3 0-0.324 0.624-1.21 1.39-1.98 1.3-1.3 1.6-1.37 4.97-1.04 6.25 0.611 12.7 1.65 13.6 2.21 1.18 0.708 1.44 2.57 0.524 3.67-0.839 1.01-2.04 1.11-3.46 0.289zm-13.5-8.53c-0.184-0.297 0.054-0.689 0.528-0.871 1.03-0.394 1.6 0.0402 1.11 0.84-0.446 0.721-1.2 0.736-1.63 0.0319zm-107-3.58c-1.41-0.984-1.56-2.07-0.359-2.53 1.36-0.523 2.39-0.381 3.22 0.441 0.963 0.963 0.957 1.11-0.077 2.15-1.02 1.02-1.24 1.02-2.78-0.0553zm-192-14.2c-1.52-0.562-1.8-1.33-0.844-2.29 1.75-1.75 5.93-0.537 5.52 1.6-0.213 1.1-2.6 1.46-4.67 0.691zm17.3-1.25c-0.573-0.433-0.786-0.796-0.474-0.805 0.313-9e-3 1.04 0.338 1.61 0.771 0.573 0.433 0.786 0.796 0.474 0.805-0.313 9e-3 -1.04-0.338-1.61-0.771zm120-2.97c-0.586-0.949 0.306-2.68 1.38-2.68 1.3 0 1.45 2.41 0.188 2.89-1.11 0.428-1.18 0.419-1.57-0.216zm10.3-4.69c0.176-1.11 0.546-2.44 0.823-2.96 0.588-1.1-0.466-5.23-1.34-5.23-0.305 0-0.088-0.341 0.482-0.758 0.57-0.417 1.26-0.617 1.54-0.445 0.278 0.172 1.67 0.259 3.09 0.194 2.73-0.125 3.44 0.703 1.78 2.08-0.443 0.368-0.805 0.878-0.805 1.13 0 0.257-0.664 1.13-1.48 1.95-0.812 0.814-1.55 1.93-1.65 2.49-0.358 2.08-1.17 3.56-1.96 3.56-0.641 0-0.747-0.43-0.496-2.01zm80.4 0.913c-1.13-1.25-0.521-3.43 1.16-4.2 1.61-0.733 3.94-0.77 5.03-0.0794 0.703 0.444 0.676 0.745-0.213 2.4-1.41 2.62-4.45 3.58-5.98 1.88zm-37.3-1.92c-0.471-0.567-0.519-1.23-0.162-2.24 0.597-1.7 2.18-2.22 2.47-0.809 0.544 2.64-0.981 4.65-2.31 3.05zm60.6 0.0217c-0.626-0.63-0.474-2.38 0.268-3.09 0.955-0.908 5.24-1.93 6.33-1.52 1.21 0.466 0.523 2.39-1.28 3.57-1.53 1-4.73 1.63-5.32 1.04zm-135-2.37c0-0.295 0.242-0.537 0.537-0.537 0.295 0 0.537 0.242 0.537 0.537 0 0.295-0.242 0.537-0.537 0.537-0.295 0-0.537-0.242-0.537-0.537zm24.9-1.16c-0.302-0.489 1.21-2.01 2.03-2.05 0.736-0.0339 1.08 1.16 0.5 1.74-0.792 0.792-2.13 0.953-2.53 0.305zm-150-0.272c-0.369-0.149-0.671-0.708-0.671-1.24 0-1.01 1.01-1.62 2.64-1.62 1.19 0 2.95 1.89 2.48 2.65-0.356 0.576-3.21 0.715-4.45 0.215zm251-0.182c-0.183-0.296 0.346-0.795 1.18-1.11 0.83-0.314 1.99-1.01 2.58-1.55 0.739-0.673 2.33-1.09 5.1-1.33 5.8-0.5 7.27-0.826 10.2-2.26 2.65-1.28 4.91-1.3 5.68-0.0479 0.546 0.884-1.91 2.54-3.77 2.54-0.927 1e-3 -2.35 0.349-3.16 0.772s-2.38 0.761-3.49 0.751c-1.11-9e-3 -3.92 0.61-6.24 1.38-4.39 1.45-7.55 1.78-8.12 0.855zm-106-3.9c-2.73-1.55-4.96-3.11-4.97-3.47 0-0.363-0.96-1.15-2.13-1.75-2.5-1.27-3.75-3.11-2.62-3.83 1.15-0.73 1.44-0.602 3.81 1.67 1.23 1.18 2.55 2.15 2.93 2.15 0.383 0 0.697 0.208 0.697 0.462 0 0.254 1.45 1.24 3.22 2.18 1.97 1.05 3.53 2.32 4.03 3.27 1.49 2.88 1.27 2.85-4.97-0.685zm22.7-13.7c-0.16-0.259 0.067-1.19 0.505-2.07 0.64-1.28 0.676-1.95 0.182-3.42-0.338-1-0.875-2.16-1.19-2.56-0.518-0.659-1.31-2.09-4.43-7.96-0.751-1.41-0.79-1.87-0.223-2.55 1.85-2.23 3.78 0.18 3.78 4.75 0 1.28 0.468 2.96 1.11 4.02 1.1 1.8 1.13 1.81 4.29 1.53 2.87-0.26 3.19-0.188 3.19 0.729 0 0.56-0.483 1.32-1.07 1.69-0.59 0.369-1.07 0.975-1.07 1.35 0 0.372-0.195 0.676-0.434 0.676s-1.14 0.96-2.01 2.13c-1.62 2.19-2.11 2.51-2.61 1.69zm-31.5-0.925c-0.387-0.466-2.29-1.96-4.22-3.32-1.93-1.36-4.31-3.15-5.28-3.98-0.97-0.828-2.62-1.86-3.67-2.3-1.05-0.437-2.57-1.46-3.38-2.28-2.34-2.37-5.54-5.15-7.48-6.53-1.76-1.25-1.78-1.29-0.767-2.3 1.34-1.34 2.97-0.746 6.08 2.2 1.26 1.2 2.51 2.18 2.78 2.18s0.356 0.203 0.203 0.45c-0.153 0.248 0.722 1.15 1.95 2.01 1.22 0.859 3.2 2.6 4.39 3.86 1.19 1.27 3.24 2.84 4.55 3.49 2.53 1.26 5.44 4.01 6.08 5.74 0.501 1.35-0.309 1.86-1.22 0.76zm2.91-2.86c-6.14-4.71-9.46-9.21-6.75-9.14 0.517 0.012 2.63 1.58 4.7 3.49 2.07 1.91 4.02 3.47 4.33 3.47 0.318 9.8e-4 1.15 0.616 1.86 1.37 0.99 1.05 1.16 1.57 0.726 2.25-0.885 1.4-1.36 1.26-4.87-1.43zm64.9-0.304c0.095-1.14 0.474-2.17 0.843-2.29 0.995-0.327 0.848 2.81-0.172 3.66-0.745 0.619-0.823 0.46-0.671-1.37zm-150-3.44c0-0.327-0.454-0.594-1.01-0.594s-1.32-0.377-1.7-0.838c-0.394-0.475-1.41-0.8-2.35-0.751-2.59 0.137-2.88 0.0395-2.8-0.929 0.041-0.499-0.414-1.16-1.01-1.48-0.62-0.324-1.01-0.974-0.899-1.51 0.136-0.69-0.263-1.03-1.48-1.28-1.53-0.307-1.6-0.408-0.841-1.25 0.749-0.828 0.738-0.994-0.115-1.74-0.519-0.453-1.48-1.1-2.14-1.44-1.19-0.616-1.19-0.622-0.134-1.68 1.55-1.55 1.32-2.89-0.683-3.88-1.48-0.739-1.57-0.873-0.562-0.903 0.896-0.026 1.32-0.517 1.73-2.03 0.36-1.3 0.369-2.18 0.025-2.52-0.912-0.912-0.573-1.51 0.682-1.21 1.69 0.413 3.11-0.768 2.72-2.26-0.264-1.01-0.113-1.18 0.965-1.08 0.703 0.0632 1.76 0.0736 2.35 0.0232 0.899-0.0768 0.943-0.178 0.268-0.62-1.51-0.991 0.552-1.61 4.16-1.25 3.33 0.333 3.35 0.327 3.35-1.05 0-1.71 0.721-2.21 2.1-1.47 0.698 0.374 1.16 0.382 1.38 0.0248 0.585-0.947 1.74-0.577 2.09 0.67 0.332 1.18 0.359 1.18 1.13 0.173 0.766-1 1.61-0.816 1.61 0.357 0 0.316 0.454 0.642 1.01 0.723 0.555 0.0815 1.27 0.406 1.58 0.722 0.316 0.316 1.47 0.574 2.56 0.574 1.7 0 2.15 0.269 3.1 1.89 1.41 2.39 2.28 2.72 4.42 1.64 0.945-0.471 1.86-0.702 2.03-0.513s0.01 0.453-0.365 0.587c-1.11 0.395-2.33 1.83-2.12 2.49 0.108 0.335 1.03 1.01 2.04 1.49s1.72 1.08 1.57 1.33c-0.148 0.244 0.336 0.75 1.07 1.12 0.738 0.373 1.16 0.713 0.939 0.754-0.221 0.0413-0.644 0.135-0.939 0.209-0.295 0.0738-0.899 0.164-1.34 0.201-1.18 0.098-0.984 1.84 0.289 2.64 0.602 0.376 0.96 0.9 0.796 1.17s-0.053 0.634 0.248 0.819c0.772 0.477 0.677 2.18-0.16 2.88-0.388 0.322-1.66 0.659-2.82 0.748-1.43 0.11-2.11 0.417-2.11 0.956 0 1.12-0.808 1.58-2.8 1.59-1.35 6e-3 -1.9 0.337-2.48 1.48-0.41 0.812-0.642 1.77-0.515 2.12 0.17 0.475-0.207 0.518-1.44 0.164-1.47-0.422-1.74-0.327-2.25 0.794-0.494 1.09-0.731 1.18-1.6 0.641-0.807-0.5-1.12-0.477-1.48 0.107-0.253 0.407-0.702 0.59-0.998 0.408-0.552-0.341-4.48 0.292-6.16 0.991-0.565 0.236-0.939 0.155-0.939-0.202zm177-3.25c0.59-0.243 1.69-1.13 2.45-1.98 1.94-2.17 3.99-3.62 8.02-5.67 1.72-0.874 6.31-4.12 6.54-4.62 0.241-0.533 5.79-3.21 7.49-3.62 0.827-0.197 1.57-0.086 1.79 0.266 0.692 1.12-1.21 2.96-4.37 4.23-1.72 0.69-3.5 1.47-3.94 1.74-0.443 0.268-3.1 1.68-5.9 3.14-2.8 1.46-6.27 3.63-7.71 4.83-1.67 1.4-3.12 2.17-4.03 2.15-1.26-0.0303-1.3-0.0824-0.344-0.475zm-38.6-10.4c-0.517-1.93-0.388-8.9 0.172-9.24 0.935-0.578 3.78-6.74 3.8-8.22 0.019-1.6 1.09-3.34 2.06-3.34 0.717 0 0.748 1.64 0.123 6.44-0.32 2.46-0.972 4.32-2.21 6.31-1.14 1.83-1.73 3.43-1.69 4.56 0.163 3.97-1.46 6.47-2.25 3.49zm-65.8-7.95c-1.86-0.834-4.35-3.29-4.35-4.29 0-1.21-4.12-7.1-5.45-7.79-0.842-0.436-1.53-0.998-1.53-1.25 0-0.252-0.731-0.761-1.62-1.13-1.53-0.632-4.33-3.75-3.38-3.75 0.242-9.8e-4 -0.349-0.483-1.31-1.07s-2.16-1.92-2.65-2.96c-0.602-1.26-1.88-2.46-3.86-3.63-1.63-0.956-3.96-2.34-5.17-3.08-1.21-0.738-3-1.83-3.98-2.42-0.974-0.59-3.15-2.07-4.84-3.29-1.69-1.22-3.65-2.52-4.36-2.89-0.713-0.37-1.78-1.22-2.37-1.9-0.59-0.675-3.34-2.39-6.1-3.82-3.66-1.89-6.21-3.72-9.39-6.75-2.4-2.28-5.04-4.7-5.87-5.37-0.828-0.667-2.28-1.84-3.22-2.61-0.943-0.768-2.59-1.98-3.67-2.68-1.85-1.22-8.24-6.55-11.2-9.35-0.751-0.708-2.13-1.84-3.07-2.52-0.935-0.676-3.14-2.36-4.9-3.74-1.76-1.38-3.88-2.87-4.72-3.3s-2.15-1.47-2.93-2.31c-2.7-2.91-7.72-7.52-9.59-8.8-1.03-0.707-2.12-1.48-2.42-1.71-0.295-0.234-1.65-1.25-3.01-2.26-2.76-2.05-4.22-4.73-3.34-6.13 1.43-2.28 6.36-2.06 8.7 0.393 0.768 0.802 2.66 2.78 4.2 4.39 1.54 1.61 3.72 3.65 4.83 4.53s4.1 3.66 6.65 6.17c6.87 6.79 7.59 7.4 9.12 7.79 0.772 0.194 1.92 1.04 2.54 1.89s1.72 1.85 2.44 2.24c3.49 1.88 10.7 7.58 14.6 11.6 2.41 2.44 4.63 4.44 4.93 4.44s0.678 0.437 0.847 0.971c0.486 1.53 4.65 5.46 6.17 5.83 2 0.477 3.84 1.49 5.67 3.12 0.886 0.786 2.82 2.22 4.3 3.18s3.41 2.53 4.29 3.47c0.884 0.948 3.24 2.61 5.23 3.69 1.99 1.08 3.62 2.13 3.62 2.34 0 0.202 1.63 1.02 3.62 1.81 2.39 0.954 4.82 2.51 7.14 4.57 1.94 1.72 4.42 3.5 5.51 3.95 1.09 0.457 2.13 1.19 2.3 1.64 0.17 0.443 1.15 1.3 2.17 1.9 1.02 0.604 1.71 1.34 1.53 1.63-0.188 0.304 0.028 0.394 0.505 0.211 0.458-0.176 0.833-0.0523 0.833 0.275 0 0.327 0.377 0.594 0.837 0.594 0.46 0 0.705 0.214 0.543 0.475-0.306 0.495 3.63 1.67 5.59 1.67 0.619 0 2.07 0.483 3.23 1.07 1.16 0.59 2.59 1.07 3.19 1.07 0.598 0 1.87 0.696 2.82 1.55 1.58 1.41 1.75 1.88 1.93 5.23 0.198 3.63 0.172 3.71-1.72 5.54-2.45 2.35-6.71 3.04-9.92 1.6zm116-10.4c-0.534-2.13 0.173-3.97 1.67-4.34 0.734-0.184 1.33-0.564 1.33-0.845s0.242-0.361 0.537-0.179c0.295 0.182 0.537 0.573 0.537 0.868 0 0.295-0.258 0.378-0.573 0.183-0.315-0.195-0.518-0.0277-0.452 0.371 0.115 0.693-0.082 1.39-1.15 4.08-0.635 1.59-1.48 1.53-1.89-0.134zm4.23-5.37c-1.49-1.05-1.09-2.2 0.89-2.6 1.03-0.206 1.68-0.781 2.05-1.8 0.292-0.826 1.45-2.47 2.57-3.65 1.12-1.18 3.49-3.83 5.26-5.9 1.78-2.06 3.67-4.22 4.2-4.79 0.533-0.572 1.1-1.44 1.25-1.93 0.355-1.12 2.65-2.39 3.44-1.9 0.323 0.2 0.588 0.726 0.588 1.17 0 1.09-3.22 5.04-4.12 5.04-0.393 0-0.715 0.231-0.715 0.512 0 0.282-1.48 1.71-3.28 3.17-2.56 2.07-3.55 3.31-4.49 5.64-0.667 1.64-1.11 3.09-0.985 3.21 0.126 0.125-0.69 0.793-1.81 1.48-1.12 0.69-2.4 1.69-2.85 2.22-0.738 0.89-0.904 0.901-1.99 0.134zm-181-10.3c-1.65-2.29-0.567-4.57 1.29-2.71 0.718 0.718 0.891 4.19 0.208 4.19-0.24 0-0.915-0.664-1.5-1.48z"/></svg>