<svg xmlns="http://www.w3.org/2000/svg" xmlns:svg="http://www.w3.org/2000/svg" id="svg187" width="202.119" height="12.867" version="1.1" viewBox="0 0 202.119 12.867" xml:space="preserve"><defs id="defs191"><filter style="color-interpolation-filters:sRGB" id="filter47468"><feBlend id="feBlend47470" in2="SourceGraphic" mode="normal"/></filter></defs><g id="g42445" transform="translate(0.07480916,0.82290077)" style="fill:#d4b890;fill-opacity:1"><path id="path183" fill="#d4b890" d="M 199.18424,0.10580253 93.365702,0.2554853 5.6236393,2.6750423 5.6152136,9.1293967 c 0,0 54.8721124,1.3103143 87.4561164,1.9993173 32.584,0.689003 105.65998,0.154456 105.65998,0.154456 4.30786,-1.7102229 4.36701,-9.613772 0.45293,-11.17737387 z" style="stroke-width:1.11174;fill:#d4b890;fill-opacity:1"/><path id="path185" fill="#d4b890" d="M 7.5282391,5.7264995 C 7.5262643,8.652945 7.8836601,11.008957 5.0501652,11.003014 2.2176574,11.000043 -0.07678243,8.6217494 -0.07480789,5.6953039 -0.07184607,2.7718295 2.2255556,0.40393398 5.0600379,0.41284701 7.8925457,0.41581803 7.5312009,2.8015395 7.5282391,5.7264995 Z" style="stroke-width:1.21103;fill:#d4b890;fill-opacity:1"/></g><g id="g35182" transform="translate(0.07480916,0.82290077)"><g id="g17646" transform="matrix(1.2025698,0,0,1.2880231,-296.83056,-576.00611)"><path id="path17628" fill-rule="evenodd" d="m 334.37352,450.03067 1.04381,3.35254 -0.22318,0.779 h -1.06145 l -1.28017,-4.13144 h 1.52099 z m 2.06343,0 -0.84034,2.77034 -0.88193,-2.77034 z" clip-rule="evenodd" style="stroke-width:.103759"/><path id="path17630" fill-rule="evenodd" d="m 339.9886,450.03067 h 1.31078 v 1.56239 z m 0,4.13144 1.31078,-1.5625 v 1.5625 z m -0.12472,0 c -0.54483,-0.0437 -0.95623,-0.24071 -1.23857,-0.5908 -0.28014,-0.35236 -0.42011,-0.8425 -0.42011,-1.47274 0,-0.63459 0.13997,-1.12473 0.42011,-1.47275 0.28234,-0.35017 0.69374,-0.54701 1.23857,-0.59515 z" clip-rule="evenodd" style="stroke-width:.103759"/><path id="polygon17632" transform="matrix(0.10375812,0,0,0.04971342,320.44113,432.21524)" style="clip-rule:evenodd;fill-rule:evenodd" d="m 269.515,441.871 h -6.896 v -83.686 h 6.896 z"/><path id="path17634" fill-rule="evenodd" d="m 345.3988,454.18217 h -1.4465 v -4.12927 h 1.4465 z m 0.12035,-4.12927 h 1.42896 v 1.59102 z m 0.8862,2.83167 -0.90373,-0.85113 0.90373,-0.85133 z" clip-rule="evenodd" style="stroke-width:.103759"/><path id="path17636" fill-rule="evenodd" d="m 350.81259,454.18217 v -4.12698 c 0.0241,-0.004 0.0503,-0.004 0.0766,-0.007 0.0284,0 0.0658,-0.002 0.116,-0.002 0.42894,0 0.74395,0.0876 0.94752,0.25618 0.20566,0.17068 0.3064,0.43548 0.3064,0.79219 0,0.34127 -0.0963,0.59963 -0.29104,0.77456 -0.19257,0.17514 -0.47926,0.26064 -0.86005,0.26064 -0.0437,0 -0.11808,-0.002 -0.22319,-0.0111 h -0.0154 l 1.63689,2.06364 h -1.69374 z m -1.81847,0 v -4.12698 h 1.47056 v 4.12698 z" clip-rule="evenodd" style="stroke-width:.103759"/><path id="path17638" fill-rule="evenodd" d="m 355.98794,450.0529 v 1.952 l -0.98259,-1.952 z m -2.49901,4.12927 v -4.12927 h 1.47055 v 4.12927 z m -1.02203,-4.12927 h 0.97605 l -0.97605,1.952 z" clip-rule="evenodd" style="stroke-width:.103759"/><path id="polygon17640" transform="matrix(0.10375812,0,0,0.10375812,320.44113,408.33446)" style="clip-rule:evenodd;fill-rule:evenodd" d="m 362.882,422.363 h -3.585 v 19.508 h -14.151 v -39.797 h 14.151 v 16.703 h 3.585 v -16.703 h 14.151 v 39.797 h -14.151 z"/><path id="polygon17632-4" transform="matrix(0.10375812,0,0,0.04971342,309.72105,432.14712)" style="clip-rule:evenodd;fill-rule:evenodd" d="m 262.619,441.871 v -83.686 h 6.896 v 83.686 z"/><path id="path25527" style="fill:#d40000;stroke-width:10;stroke-linejoin:bevel;paint-order:fill markers stroke" d="m 109.50353,2.5269167 a 0.63587785,0.61717558 0 0 1 -0.63588,0.6171756 0.63587785,0.61717558 0 0 1 -0.63587,-0.6171756 0.63587785,0.61717558 0 0 1 0.63587,-0.6171755 0.63587785,0.61717558 0 0 1 0.63588,0.6171755 z" transform="matrix(0.83155256,0,0,0.77638359,246.83021,447.20169)"/><path id="path25527-8" style="fill:#d40000;stroke-width:10;stroke-linejoin:bevel;paint-order:fill markers stroke" d="m 122.35797,2.6391306 a 0.63587785,0.61717558 0 0 1 -0.63588,0.6171756 0.63587785,0.61717558 0 0 1 -0.63588,-0.6171756 0.63587785,0.61717558 0 0 1 0.63588,-0.6171756 0.63587785,0.61717558 0 0 1 0.63588,0.6171756 z" transform="matrix(0.83155256,0,0,0.77638359,246.83021,447.20169)"/></g><g id="g27531" transform="matrix(0.00131901,0,0,0.00150518,137.9527,4.2912059)"><path id="path27478-6" stroke="#fff" stroke-width="213.861" d="M -499.10222,213.90455 H 4814.535 m 0,425.20407 H -499.10222 m 0,425.20408 H 4814.535 m 0,425.204 H -499.10222 m 0,425.2041 H 4814.535 m 0,425.2041 H -499.10222" style="fill:#a00;stroke:#d40000"/><path id="rect27480" style="fill:#00002b;stroke-width:.712869" d="M -502.36224,108.05653 H 1623.0926 V 1596.2708 H -502.36224 Z"/><g id="g28928" transform="matrix(263.6616,0,0,268.62448,-97281.793,-120510.41)" style="fill:#d4b890;fill-opacity:1"><path id="path17628-1" fill-rule="evenodd" d="m 369.23034,449.69802 1.04381,3.35254 -0.22318,0.779 h -1.06145 l -1.28017,-4.13144 h 1.52099 z m 2.06343,0 -0.84034,2.77034 -0.88193,-2.77034 z" clip-rule="evenodd" style="fill:#d4b890;fill-opacity:1;stroke-width:.103759"/><path id="path17634-1" fill-rule="evenodd" d="m 372.99001,453.82842 h -1.4465 v -4.12927 h 1.4465 z m 0.12035,-4.12927 h 1.42896 v 1.59102 z m 0.8862,2.83167 -0.90373,-0.85113 0.90373,-0.85133 z" clip-rule="evenodd" style="fill:#d4b890;fill-opacity:1;stroke-width:.103759"/></g></g><g id="g30364" transform="matrix(0.54495858,0,0,0.48784373,74.690003,11.611355)" style="stroke-width:.533348;stroke-dasharray:none"><path style="fill:none;fill-opacity:1;fill-rule:nonzero;stroke:#000;stroke-width:.533348;stroke-linecap:round;stroke-linejoin:round;stroke-dasharray:none;stroke-opacity:1;paint-order:fill markers stroke" id="path30234" d="m 134.20239,-18.249832 v 0 l 3.01519,-0.423185 3.27968,-0.105796 1.37534,0.661226 -1.11085,1.666289 -4.12605,1.798534 h 1.58694 l 0.52898,0.634777 0.47609,2.16882 0.31739,0.0529 0.74057,-1.216656 0.52898,-0.26449 0.37029,0.52898 0.15869,0.687675 -0.42318,0.740573 -1.37535,-0.0529 0.0529,-0.528981 0.1587,0.370287 0.95216,0.0529 0.79347,-0.687675 0.37029,-0.317388 0.89927,-0.264491 0.52898,0.317389 -0.89927,0.476082 -1.16376,-0.0529 0.37029,-0.52898 1.16376,-0.0529 0.68767,0.211592 -0.74057,1.005063 -3.51773,3.3061291 1.19022,-1.586942 1.79853,-1.2960021 1.85143,-1.005064 1.48115,-0.581878 0.31739,0.158694 -0.52899,0.634777 0.63478,-0.211593 1.05796,-0.740573 v 0.370287 l -0.31739,0.317388 0.52898,0.105796 v -0.317388"/><path style="fill:none;fill-opacity:1;fill-rule:nonzero;stroke:#000;stroke-width:.533348;stroke-linecap:round;stroke-linejoin:round;stroke-dasharray:none;stroke-opacity:1;paint-order:fill markers stroke" id="path30357" d="m 138.30199,-17.985342 -0.15869,0.55543 -1.37535,3.464823 -1.69274,2.327515"/><path style="fill:none;fill-opacity:1;fill-rule:nonzero;stroke:#000;stroke-width:.533348;stroke-linecap:round;stroke-linejoin:round;stroke-dasharray:none;stroke-opacity:1;paint-order:fill markers stroke" id="path30359" d="m 154.72684,-17.059626 -0.74057,-0.07935 -0.76702,0.185143 -1.42825,0.581879 -1.11086,0.740573 -1.21666,1.190206 -0.84637,1.296003 -0.26449,0.661226 0.0529,0.449633 0.89927,0.185143 1.03151,-0.185143 0.50253,-0.449633 0.58188,-0.396736 0.26449,-0.07935 -0.21159,0.528981 -0.63478,0.132245 0.71413,-0.211592 0.23804,0.238041 0.39673,-0.317388 0.74058,-0.07935 -0.79348,0.55543 0.81992,-0.423184 0.47609,-0.07935 -0.26449,0.502532 h -0.50253 l 0.44963,0.0529 -0.37029,0.449634 0.34384,0.26449 0.31739,-0.132245 3.9938,-3.570619 2.27462,-1.507595 -1.5076,1.692738 2.38042,-0.02645 -7.37928,-0.02645 4.1525,0.476082 1.98367,0.608328 2.30107,0.846369 -1.5076,-0.132245 -2.22171,0.740573 -0.34384,-0.158694 v -0.581879 l 0.60833,-1.005063 -0.74058,0.952165 -0.44963,0.608328 -0.39674,0.158694 v -0.317389 l 0.29094,-0.634776 0.76702,-0.767022 -0.0793,-0.185144"/><g id="text30423" aria-label="ROGER CARTER" transform="matrix(1.9360365,0,0,1.9428633,-137.05629,-23.801382)" style="font-size:1.5px;font-family:'Segoe UI';-inkscape-font-specification:'Segoe UI';text-align:center;letter-spacing:.15px;text-anchor:middle;fill:none;stroke:#000;stroke-width:.366097;stroke-linecap:round;stroke-linejoin:round;paint-order:fill markers stroke"><path d="m 145.76089,9.1078386 h -0.18823 l -0.36475,-0.4335937 h -0.20434 v 0.4335937 h -0.14502 V 8.0172625 h 0.30542 q 0.0989,0 0.16479,0.013184 0.0659,0.012451 0.11866,0.04541 0.0593,0.037354 0.0923,0.094482 0.0337,0.056397 0.0337,0.1435547 0,0.1179199 -0.0593,0.1977539 -0.0593,0.079102 -0.16333,0.1193848 z m -0.33911,-0.7836914 q 0,-0.046875 -0.0169,-0.082764 -0.0161,-0.036621 -0.0542,-0.061523 -0.0315,-0.02124 -0.0747,-0.029297 -0.0432,-0.00879 -0.10181,-0.00879 h -0.17065 v 0.4116211 h 0.14648 q 0.0688,0 0.12012,-0.011719 0.0513,-0.012451 0.0872,-0.04541 0.033,-0.030762 0.0483,-0.070312 0.0161,-0.040283 0.0161,-0.1018067 z" style="font-family:sans-serif;-inkscape-font-specification:sans-serif" id="path6098"/><path d="m 146.8645,8.1425066 q 0.0667,0.073242 0.10181,0.1794434 0.0359,0.1062011 0.0359,0.2409668 0,0.1347656 -0.0366,0.2416992 -0.0359,0.1062011 -0.10108,0.1772461 -0.0674,0.073975 -0.15966,0.1113281 -0.0916,0.037354 -0.20948,0.037354 -0.11499,0 -0.20947,-0.038086 -0.0937,-0.038086 -0.15967,-0.1105957 -0.0659,-0.07251 -0.1018,-0.1779785 -0.0352,-0.1054688 -0.0352,-0.2409668 0,-0.1333008 0.0352,-0.2387696 0.0352,-0.1062011 0.10254,-0.1816406 0.0644,-0.071777 0.15966,-0.1098633 0.0959,-0.038086 0.20874,-0.038086 0.11719,0 0.21021,0.038818 0.0937,0.038086 0.15893,0.1091309 z m -0.0132,0.4204102 q 0,-0.2124024 -0.0952,-0.3273926 -0.0952,-0.1157227 -0.26001,-0.1157227 -0.16626,0 -0.26148,0.1157227 -0.0945,0.1149902 -0.0945,0.3273926 0,0.2145996 0.0967,0.3288574 0.0967,0.1135254 0.25928,0.1135254 0.16259,0 0.25854,-0.1135254 0.0967,-0.1142578 0.0967,-0.3288574 z" style="font-family:sans-serif;-inkscape-font-specification:sans-serif" id="path6100"/><path d="m 148.29185,9.0272722 q -0.0894,0.041016 -0.19556,0.071777 -0.10547,0.030029 -0.20434,0.030029 -0.12745,0 -0.23365,-0.035156 -0.1062,-0.035156 -0.1809,-0.1054687 -0.0754,-0.071045 -0.11646,-0.1772461 -0.041,-0.1069336 -0.041,-0.2497559 0,-0.2614746 0.15235,-0.4123535 0.15307,-0.1516113 0.41968,-0.1516113 0.093,0 0.18969,0.022705 0.0974,0.021973 0.20948,0.07544 v 0.1721191 h -0.0132 q -0.0227,-0.017578 -0.0659,-0.046143 -0.0432,-0.028564 -0.085,-0.047607 -0.0505,-0.022705 -0.11499,-0.037354 -0.0637,-0.015381 -0.14502,-0.015381 -0.1831,0 -0.29004,0.1179199 -0.1062,0.1171875 -0.1062,0.3178711 0,0.2116699 0.11133,0.3295898 0.11133,0.1171875 0.30322,0.1171875 0.0703,0 0.1399,-0.013916 0.0703,-0.013916 0.12304,-0.035889 V 8.6866961 h -0.29223 V 8.5592546 h 0.43579 z" style="font-family:sans-serif;-inkscape-font-specification:sans-serif" id="path6102"/><path d="m 149.41377,9.1078386 h -0.7185 V 8.0172625 h 0.7185 v 0.1289062 h -0.57348 v 0.2988281 h 0.57348 v 0.1289063 h -0.57348 v 0.4050293 h 0.57348 z" style="font-family:sans-serif;-inkscape-font-specification:sans-serif" id="path6104"/><path d="m 150.6961,9.1078386 h -0.18824 l -0.36474,-0.4335937 h -0.20435 v 0.4335937 h -0.14502 V 8.0172625 h 0.30542 q 0.0989,0 0.1648,0.013184 0.0659,0.012451 0.11865,0.04541 0.0593,0.037354 0.0923,0.094482 0.0337,0.056397 0.0337,0.1435547 0,0.1179199 -0.0593,0.1977539 -0.0593,0.079102 -0.16333,0.1193848 z m -0.33911,-0.7836914 q 0,-0.046875 -0.0169,-0.082764 -0.0161,-0.036621 -0.0542,-0.061523 -0.0315,-0.02124 -0.0747,-0.029297 -0.0432,-0.00879 -0.1018,-0.00879 h -0.17066 v 0.4116211 h 0.14649 q 0.0688,0 0.12011,-0.011719 0.0513,-0.012451 0.0872,-0.04541 0.033,-0.030762 0.0483,-0.070312 0.0161,-0.040283 0.0161,-0.1018067 z" style="font-family:sans-serif;-inkscape-font-specification:sans-serif" id="path6106"/><path d="m 152.50635,9.0287371 q -0.0403,0.017578 -0.0732,0.032959 -0.0322,0.015381 -0.085,0.032227 -0.0447,0.013916 -0.0974,0.023437 -0.052,0.010254 -0.11499,0.010254 -0.11866,0 -0.21607,-0.032959 -0.0967,-0.033691 -0.16846,-0.1047363 -0.0703,-0.06958 -0.10986,-0.1765137 -0.0395,-0.107666 -0.0395,-0.2497558 0,-0.1347656 0.0381,-0.2409668 0.0381,-0.1062012 0.10986,-0.1794434 0.0696,-0.071045 0.16772,-0.1083984 0.0989,-0.037354 0.219,-0.037354 0.0879,0 0.17505,0.02124 0.0879,0.02124 0.19482,0.074707 v 0.1721192 h -0.011 q -0.0901,-0.075439 -0.17871,-0.1098633 -0.0886,-0.034424 -0.18969,-0.034424 -0.0828,0 -0.14942,0.0271 -0.0659,0.026367 -0.11792,0.082764 -0.0505,0.054932 -0.0791,0.1391602 -0.0278,0.083496 -0.0278,0.1933594 0,0.1149902 0.0308,0.1977539 0.0315,0.082764 0.0806,0.1347656 0.0513,0.054199 0.11938,0.080566 0.0688,0.025635 0.14502,0.025635 0.10474,0 0.19629,-0.035889 0.0915,-0.035889 0.17139,-0.107666 h 0.0102 z" style="font-family:sans-serif;-inkscape-font-specification:sans-serif" id="path6108"/><path d="m 153.72129,9.1078386 h -0.15454 l -0.10693,-0.303955 h -0.47168 l -0.10694,0.303955 h -0.14721 l 0.39697,-1.0905761 h 0.19336 z m -0.30615,-0.4284668 -0.19116,-0.5354004 -0.1919,0.5354004 z" style="font-family:sans-serif;-inkscape-font-specification:sans-serif" id="path6110"/><path d="m 154.93916,9.1078386 h -0.18823 l -0.36475,-0.4335937 h -0.20434 v 0.4335937 h -0.14502 V 8.0172625 h 0.30542 q 0.0989,0 0.16479,0.013184 0.0659,0.012451 0.11866,0.04541 0.0593,0.037354 0.0923,0.094482 0.0337,0.056397 0.0337,0.1435547 0,0.1179199 -0.0593,0.1977539 -0.0593,0.079102 -0.16333,0.1193848 z m -0.33911,-0.7836914 q 0,-0.046875 -0.0168,-0.082764 -0.0161,-0.036621 -0.0542,-0.061523 -0.0315,-0.02124 -0.0747,-0.029297 -0.0432,-0.00879 -0.10181,-0.00879 h -0.17065 v 0.4116211 h 0.14648 q 0.0688,0 0.12012,-0.011719 0.0513,-0.012451 0.0872,-0.04541 0.033,-0.030762 0.0483,-0.070312 0.0161,-0.040283 0.0161,-0.1018067 z" style="font-family:sans-serif;-inkscape-font-specification:sans-serif" id="path6112"/><path d="m 155.96368,8.1461687 h -0.38965 v 0.9616699 h -0.14502 V 8.1461687 h -0.38965 V 8.0172625 h 0.92432 z" style="font-family:sans-serif;-inkscape-font-specification:sans-serif" id="path6114"/><path d="m 156.97867,9.1078386 h -0.71851 V 8.0172625 h 0.71851 v 0.1289062 h -0.57349 v 0.2988281 h 0.57349 v 0.1289063 h -0.57349 v 0.4050293 h 0.57349 z" style="font-family:sans-serif;-inkscape-font-specification:sans-serif" id="path6116"/><path d="m 158.26099,9.1078386 h -0.18823 l -0.36475,-0.4335937 h -0.20435 v 0.4335937 h -0.14501 V 8.0172625 h 0.30542 q 0.0989,0 0.16479,0.013184 0.0659,0.012451 0.11865,0.04541 0.0593,0.037354 0.0923,0.094482 0.0337,0.056397 0.0337,0.1435547 0,0.1179199 -0.0593,0.1977539 -0.0593,0.079102 -0.16333,0.1193848 z m -0.33911,-0.7836914 q 0,-0.046875 -0.0168,-0.082764 -0.0161,-0.036621 -0.0542,-0.061523 -0.0315,-0.02124 -0.0747,-0.029297 -0.0432,-0.00879 -0.10181,-0.00879 h -0.17066 v 0.4116211 h 0.14649 q 0.0688,0 0.12012,-0.011719 0.0513,-0.012451 0.0871,-0.04541 0.033,-0.030762 0.0483,-0.070312 0.0161,-0.040283 0.0161,-0.1018067 z" style="font-family:sans-serif;-inkscape-font-specification:sans-serif" id="path6118"/></g></g><g id="g42434"><g id="text31254" aria-label="ORPSMASTER" transform="translate(-3.726342e-6)" style="font-size:2px;-inkscape-font-specification:sans-serif;text-align:center;letter-spacing:.15px;text-anchor:middle;fill:none;stroke:#000;stroke-width:.275;stroke-linecap:round;stroke-linejoin:round;paint-order:fill markers stroke"><path id="path6121" d="m 174.20082,4.473196 q 0.0889,0.097656 0.13575,0.2392578 0.0479,0.1416016 0.0479,0.3212891 0,0.1796875 -0.0488,0.3222656 -0.0478,0.1416016 -0.13477,0.2363282 -0.0898,0.098633 -0.21289,0.1484375 -0.12207,0.049805 -0.27929,0.049805 -0.15332,0 -0.2793,-0.050781 -0.125,-0.050781 -0.21289,-0.1474609 -0.0879,-0.09668 -0.13574,-0.2373047 -0.0469,-0.140625 -0.0469,-0.3212891 0,-0.1777344 0.0469,-0.3183594 0.0469,-0.1416015 0.13672,-0.2421875 0.0859,-0.095703 0.21289,-0.1464843 0.12793,-0.050781 0.27832,-0.050781 0.15625,0 0.28027,0.051758 0.125,0.050781 0.21191,0.1455078 z m -0.0176,0.5605469 q 0,-0.2832031 -0.12696,-0.4365234 -0.12695,-0.1542969 -0.34668,-0.1542969 -0.22168,0 -0.34863,0.1542969 -0.12598,0.1533203 -0.12598,0.4365234 0,0.2861328 0.12891,0.4384766 0.12891,0.1513672 0.3457,0.1513672 0.2168,0 0.34473,-0.1513672 0.12891,-0.1523438 0.12891,-0.4384766 z"/><path id="path6123" d="m 176.04418,5.7603054 h -0.25097 l -0.48633,-0.578125 h -0.27246 v 0.578125 h -0.19336 V 4.3062038 h 0.40722 q 0.13184,0 0.21973,0.017578 0.0879,0.016602 0.1582,0.060547 0.0791,0.049805 0.12305,0.1259766 0.0449,0.075195 0.0449,0.1914063 0,0.1572265 -0.0791,0.2636718 -0.0791,0.1054688 -0.21777,0.1591797 z m -0.45215,-1.0449219 q 0,-0.0625 -0.0225,-0.1103515 -0.0215,-0.048828 -0.0723,-0.082031 -0.042,-0.02832 -0.0996,-0.039063 -0.0576,-0.011719 -0.13574,-0.011719 h -0.22754 v 0.5488281 h 0.19531 q 0.0918,0 0.16016,-0.015625 0.0684,-0.016602 0.11621,-0.060547 0.0439,-0.041016 0.0644,-0.09375 0.0215,-0.053711 0.0215,-0.1357422 z"/><path id="path6125" d="m 177.33286,4.745657 q 0,0.09668 -0.0342,0.1796875 -0.0332,0.082031 -0.0937,0.1425781 -0.0752,0.075195 -0.17774,0.1132812 -0.10254,0.037109 -0.25879,0.037109 h -0.19336 v 0.5419922 h -0.19336 V 4.3062038 h 0.39453 q 0.13086,0 0.22168,0.022461 0.0908,0.021484 0.16114,0.068359 0.083,0.055664 0.12793,0.1386718 0.0459,0.083008 0.0459,0.209961 z m -0.20118,0.00488 q 0,-0.075195 -0.0264,-0.1308594 -0.0264,-0.055664 -0.0801,-0.09082 -0.0469,-0.030273 -0.10742,-0.042969 -0.0596,-0.013672 -0.15137,-0.013672 h -0.19141 v 0.5810547 h 0.16309 q 0.11719,0 0.19043,-0.020508 0.0732,-0.021484 0.11914,-0.067383 0.0459,-0.046875 0.0645,-0.098633 0.0195,-0.051758 0.0195,-0.1162109 z"/><path id="path6127" d="m 178.79438,5.3452663 q 0,0.084961 -0.04,0.1679688 -0.0391,0.083008 -0.11035,0.140625 -0.0781,0.0625 -0.18262,0.097656 -0.10351,0.035156 -0.25,0.035156 -0.15723,0 -0.2832,-0.029297 -0.125,-0.029297 -0.25489,-0.086914 V 5.4282742 h 0.0137 q 0.11035,0.091797 0.25488,0.1416015 0.14453,0.049805 0.27148,0.049805 0.17969,0 0.2793,-0.067383 0.10059,-0.067383 0.10059,-0.1796875 0,-0.09668 -0.0479,-0.1425781 -0.0469,-0.045898 -0.14356,-0.071289 -0.0732,-0.019531 -0.15918,-0.032227 -0.085,-0.012695 -0.18066,-0.032226 -0.19336,-0.041016 -0.28711,-0.1396485 -0.0928,-0.099609 -0.0928,-0.258789 0,-0.1826172 0.1543,-0.2988281 0.1543,-0.1171875 0.3916,-0.1171875 0.15332,0 0.28125,0.029297 0.12793,0.029297 0.22656,0.072266 v 0.2285156 h -0.0137 q -0.083,-0.070312 -0.21875,-0.116211 -0.13476,-0.046875 -0.27636,-0.046875 -0.15528,0 -0.25,0.064453 -0.0937,0.064453 -0.0937,0.1660156 0,0.09082 0.0469,0.1425781 0.0469,0.051758 0.16504,0.079102 0.0625,0.013672 0.17773,0.033203 0.11524,0.019531 0.19532,0.040039 0.16211,0.042969 0.24414,0.1298828 0.082,0.086914 0.082,0.243164 z"/><path id="path6129" d="m 180.54985,5.7603054 h -0.19336 V 4.5073757 l -0.4043,0.8525391 h -0.11523 l -0.40137,-0.8525391 v 1.2529297 h -0.18066 V 4.3062038 h 0.26367 l 0.38769,0.8095704 0.375,-0.8095704 h 0.26856 z"/><path id="path6131" d="M 182.23696,5.7603054 H 182.0309 L 181.88832,5.355032 h -0.6289 l -0.14258,0.4052734 h -0.19629 l 0.5293,-1.4541016 h 0.25781 z m -0.40821,-0.5712891 -0.25488,-0.7138671 -0.25586,0.7138671 z"/><path id="path6133" d="m 183.65453,5.3452663 q 0,0.084961 -0.04,0.1679688 -0.0391,0.083008 -0.11036,0.140625 -0.0781,0.0625 -0.18261,0.097656 -0.10352,0.035156 -0.25,0.035156 -0.15723,0 -0.28321,-0.029297 -0.125,-0.029297 -0.25488,-0.086914 V 5.4282742 h 0.0137 q 0.11035,0.091797 0.25489,0.1416015 0.14453,0.049805 0.27148,0.049805 0.17969,0 0.2793,-0.067383 0.10058,-0.067383 0.10058,-0.1796875 0,-0.09668 -0.0479,-0.1425781 -0.0469,-0.045898 -0.14355,-0.071289 -0.0733,-0.019531 -0.15918,-0.032227 -0.085,-0.012695 -0.18067,-0.032226 -0.19336,-0.041016 -0.28711,-0.1396485 -0.0928,-0.099609 -0.0928,-0.258789 0,-0.1826172 0.1543,-0.2988281 0.15429,-0.1171875 0.3916,-0.1171875 0.15332,0 0.28125,0.029297 0.12793,0.029297 0.22656,0.072266 v 0.2285156 h -0.0137 q -0.083,-0.070312 -0.21875,-0.116211 -0.13477,-0.046875 -0.27637,-0.046875 -0.15527,0 -0.25,0.064453 -0.0937,0.064453 -0.0937,0.1660156 0,0.09082 0.0469,0.1425781 0.0469,0.051758 0.16504,0.079102 0.0625,0.013672 0.17773,0.033203 0.11523,0.019531 0.19531,0.040039 0.16211,0.042969 0.24414,0.1298828 0.082,0.086914 0.082,0.243164 z"/><path id="path6135" d="m 185.15219,4.4780788 h -0.51953 V 5.7603054 H 184.4393 V 4.4780788 h -0.51953 v -0.171875 h 1.23242 z"/><path id="path6137" d="M 186.45551,5.7603054 H 185.4975 V 4.3062038 h 0.95801 v 0.171875 h -0.76465 v 0.3984375 h 0.76465 v 0.171875 h -0.76465 v 0.5400391 h 0.76465 z"/><path id="path6139" d="m 188.11528,5.7603054 h -0.25098 l -0.48633,-0.578125 h -0.27246 v 0.578125 h -0.19336 V 4.3062038 h 0.40723 q 0.13183,0 0.21973,0.017578 0.0879,0.016602 0.1582,0.060547 0.0791,0.049805 0.12305,0.1259766 0.0449,0.075195 0.0449,0.1914063 0,0.1572265 -0.0791,0.2636718 -0.0791,0.1054688 -0.21778,0.1591797 z m -0.45215,-1.0449219 q 0,-0.0625 -0.0225,-0.1103515 -0.0215,-0.048828 -0.0723,-0.082031 -0.042,-0.02832 -0.0996,-0.039063 -0.0576,-0.011719 -0.13574,-0.011719 h -0.22754 v 0.5488281 h 0.19531 q 0.0918,0 0.16016,-0.015625 0.0684,-0.016602 0.11621,-0.060547 0.0439,-0.041016 0.0644,-0.09375 0.0215,-0.053711 0.0215,-0.1357422 z"/></g><path style="fill:none;fill-opacity:1;fill-rule:nonzero;stroke:#000;stroke-width:.220961;stroke-linecap:round;stroke-linejoin:round;stroke-dasharray:none;stroke-opacity:1;paint-order:fill markers stroke" id="path31992" d="m 390.77894,452.1095 11.35292,-0.0581" transform="matrix(1.2025698,0,0,1.2880231,-296.83056,-576.00611)"/><g id="text31258" aria-label="C" style="font-size:4px;-inkscape-font-specification:sans-serif;text-align:center;text-anchor:middle;fill:none;stroke:#000;stroke-width:.275;stroke-linecap:round;stroke-linejoin:round;paint-order:fill markers stroke"><path d="m 172.54387,6.0636811 q -0.10742,0.046875 -0.19531,0.087891 -0.0859,0.041016 -0.22657,0.085937 -0.11914,0.037109 -0.25976,0.0625 -0.13867,0.027344 -0.30664,0.027344 -0.31641,0 -0.57617,-0.087891 -0.25782,-0.089844 -0.44922,-0.2792969 -0.1875,-0.1855469 -0.29297,-0.4707031 -0.10547,-0.2871094 -0.10547,-0.6660156 0,-0.359375 0.10156,-0.6425782 0.10156,-0.2832031 0.29297,-0.4785156 0.18555,-0.1894531 0.44727,-0.2890625 0.26367,-0.099609 0.58398,-0.099609 0.23438,0 0.4668,0.056641 0.23437,0.056641 0.51953,0.1992187 v 0.4589844 h -0.0293 q -0.24023,-0.2011719 -0.47656,-0.2929688 -0.23633,-0.091797 -0.50586,-0.091797 -0.2207,0 -0.39844,0.072266 -0.17578,0.070312 -0.31445,0.2207031 -0.13477,0.1464844 -0.21094,0.3710938 -0.0742,0.2226562 -0.0742,0.515625 0,0.3066406 0.082,0.5273437 0.084,0.2207031 0.21485,0.359375 0.13672,0.1445313 0.31836,0.2148438 0.18359,0.068359 0.38672,0.068359 0.27929,0 0.52343,-0.095703 0.24414,-0.095703 0.45704,-0.2871094 h 0.0273 z" style="fill:#000" id="path6142"/></g></g></g><g id="g42463" transform="translate(0.07480916,0.82290077)"><path id="rect21564" style="fill:#f2f2f2;stroke-width:10;stroke-linejoin:bevel;paint-order:fill markers stroke" d="m 10.622523,2.1778967 h 4.42464 v 7.2817812 h -4.42464 z"/><path id="rect21568" style="fill:#f2f2f2;stroke-width:10;stroke-linejoin:bevel;paint-order:fill markers stroke" d="m 13.38321,2.0630245 h 5.078214 V 9.4687538 H 13.38321 Z"/><path id="rect21570" style="fill:#f2f2f2;stroke-width:10;stroke-linejoin:bevel;paint-order:fill markers stroke" d="m 18.196934,2.1688206 h 5.501398 v 7.4586272 h -5.501398 z"/><path id="rect21572" style="fill:#f2f2f2;stroke-width:10;stroke-linejoin:bevel;paint-order:fill markers stroke" d="m 23.433844,1.9572284 h 5.660092 v 7.7760158 h -5.660092 z"/><path id="rect21574" style="fill:#f2f2f2;stroke-width:10;stroke-linejoin:bevel;paint-order:fill markers stroke" d="m 29.041039,1.6927381 h 5.289806 v 8.3578939 h -5.289806 z"/><path id="rect21576" style="fill:#f2f2f2;stroke-width:10;stroke-linejoin:bevel;paint-order:fill markers stroke" d="m 34.330845,1.7456361 h 4.91952 v 8.4107919 h -4.91952 z"/><path id="rect21578" style="fill:#f2f2f2;stroke-width:10;stroke-linejoin:bevel;paint-order:fill markers stroke" d="m 39.091671,1.5340439 h 5.289806 v 8.7810781 h -5.289806 z"/><path id="rect21580" style="fill:#f2f2f2;stroke-width:10;stroke-linejoin:bevel;paint-order:fill markers stroke" d="m 44.169884,1.3224516 h 5.501398 v 9.0984664 h -5.501398 z"/><path id="rect21582" style="fill:#f2f2f2;stroke-width:10;stroke-linejoin:bevel;paint-order:fill markers stroke" d="m 49.45969,0.95216519 h 5.871685 V 10.473816 H 49.45969 Z"/><path id="rect22338" style="fill:#f2f2f2;stroke-width:10;stroke-linejoin:bevel;paint-order:fill markers stroke" d="m 55.17268,0.52898067 h 6.612258 V 10.897002 H 55.17268 Z"/><path id="rect22340" style="fill:#f2f2f2;stroke-width:10;stroke-linejoin:bevel;paint-order:fill markers stroke" d="m 61.520451,0.68767482 h 6.347767 V 10.632511 h -6.347767 z"/><path id="rect22342" style="fill:#f2f2f2;stroke-width:10;stroke-linejoin:bevel;paint-order:fill markers stroke" d="m 67.603729,0.74057293 h 6.453564 V 10.844104 h -6.453564 z"/><path id="rect22344" style="fill:#f2f2f2;stroke-width:10;stroke-linejoin:bevel;paint-order:fill markers stroke" d="m 73.316719,0.58187872 h 6.982544 V 11.267288 h -6.982544 z"/><path id="rect22346" style="fill:#f2f2f2;stroke-width:10;stroke-linejoin:bevel;paint-order:fill markers stroke" d="m 80.034775,0.42318451 h 7.088341 V 11.055696 h -7.088341 z"/><path id="rect22348" style="fill:#f2f2f2;stroke-width:10;stroke-linejoin:bevel;paint-order:fill markers stroke" d="m 86.85862,0.26449034 h 7.617321 V 11.425982 H 86.85862 Z"/></g><g id="g42424" transform="translate(0.07480916,0.82290077)"><path id="rect23866" style="fill:#f2f2f2;stroke-width:10;stroke-linejoin:bevel;paint-order:fill markers stroke" d="m 192.25954,-0.52366412 h 6.20916 V 11.670229 h -6.20916 z"/><path id="rect24632" style="fill:#f2f2f2;stroke-width:10;stroke-linejoin:bevel;paint-order:fill markers stroke" d="m 188.14503,-0.82290077 h 6.43359 V 12.044275 h -6.43359 z"/><path id="rect24634" style="fill:#f2f2f2;stroke-width:10;stroke-linejoin:bevel;paint-order:fill markers stroke" d="m 185.22748,-0.74809164 h 3.96488 V 11.745038 h -3.96488 z"/></g></svg>